<?xml version="1.0" encoding="UTF-8"?>
<svg version="1.1" xmlns="http://www.w3.org/2000/svg" width="512" height="512">
<path d="M0 0 C1.2833876 -0.0066568 2.56677521 -0.0133136 3.88905334 -0.02017212 C6.59086469 -0.03204084 9.29254927 -0.03586428 11.99438477 -0.03466797 C14.71405889 -0.03450629 17.43305319 -0.04827323 20.15258789 -0.07568359 C36.93754677 -0.24205743 52.80145715 0.42317638 69.16015625 4.3359375 C69.87033905 4.50148132 70.58052185 4.66702515 71.31222534 4.83758545 C75.62688042 5.85580497 79.89586083 7.00064118 84.16015625 8.2109375 C86.00685913 8.72648193 86.00685913 8.72648193 87.89086914 9.25244141 C95.36264295 11.38921701 102.51609376 13.7652659 109.53125 17.109375 C112.15503667 18.40203398 112.15503667 18.40203398 115.03515625 19.25 C118.84185956 20.5728294 122.20513747 22.38842459 125.72265625 24.3359375 C130.6297196 27.06537156 130.6297196 27.06537156 135.75390625 29.33984375 C138.83370987 30.61476246 141.35771534 32.37981039 144.09765625 34.2734375 C147.12145341 36.36083296 150.01360322 38.2633883 153.30859375 39.89453125 C155.91216462 41.21058283 157.7263083 42.49288043 159.84765625 44.4609375 C162.09845174 46.54098299 163.1672558 47.33830402 166.16015625 48.3359375 C166.16015625 48.9959375 166.16015625 49.6559375 166.16015625 50.3359375 C166.70800781 50.57570312 167.25585938 50.81546875 167.8203125 51.0625 C170.72023565 52.64075533 173.06387633 54.59535427 175.59765625 56.7109375 C179.70001134 60.12393012 179.70001134 60.12393012 183.8515625 63.4765625 C188.55869762 67.26775762 192.30450209 71.70915251 196.16015625 76.3359375 C197.27390625 77.4496875 197.27390625 77.4496875 198.41015625 78.5859375 C203.610753 83.78653425 209.032803 89.22377424 213.16015625 95.3359375 C213.16015625 95.9959375 213.16015625 96.6559375 213.16015625 97.3359375 C213.82015625 97.3359375 214.48015625 97.3359375 215.16015625 97.3359375 C215.99546875 98.8828125 215.99546875 98.8828125 216.84765625 100.4609375 C218.32565874 103.06578587 219.77123663 105.06625307 221.72265625 107.3984375 C224.13873064 110.31011689 225.47491641 112.96545783 227.16015625 116.3359375 C228.31139282 117.97190525 229.47974319 119.59589536 230.66015625 121.2109375 C233.23116762 124.81035341 234.93445713 127.96580586 236.28515625 132.14453125 C237.44657863 135.05327212 239.03610889 137.59714279 240.66015625 140.2734375 C243.1310063 144.41559322 245.02884851 148.19940606 246.37109375 152.81640625 C247.15396816 155.44262425 247.15396816 155.44262425 248.38671875 158.32421875 C252.27417485 167.83497364 254.92060116 177.57363408 257.41015625 187.5234375 C257.66881973 188.54692795 257.66881973 188.54692795 257.93270874 189.59109497 C258.43821246 191.60185765 258.93383579 193.61478726 259.42578125 195.62890625 C259.85552246 197.38497192 259.85552246 197.38497192 260.29394531 199.17651367 C262.55264246 209.51207053 263.4764625 219.60719347 263.49609375 230.17578125 C263.50275055 231.45916885 263.50940735 232.74255646 263.51626587 234.06483459 C263.52813459 236.76664594 263.53195803 239.46833052 263.53076172 242.17016602 C263.53060004 244.88984014 263.54436698 247.60883444 263.57177734 250.32836914 C263.73815118 267.11332802 263.07291737 282.9772384 259.16015625 299.3359375 C258.99461243 300.0461203 258.8290686 300.7563031 258.6585083 301.48800659 C257.64028878 305.80266167 256.49545257 310.07164208 255.28515625 314.3359375 C254.76961182 316.18264038 254.76961182 316.18264038 254.24365234 318.06665039 C252.10687674 325.5384242 249.73082785 332.69187501 246.38671875 339.70703125 C245.09405977 342.33081792 245.09405977 342.33081792 244.24609375 345.2109375 C242.92326435 349.01764081 241.10766916 352.38091872 239.16015625 355.8984375 C236.43072219 360.80550085 236.43072219 360.80550085 234.15625 365.9296875 C232.88133129 369.00949112 231.11628336 371.53349659 229.22265625 374.2734375 C227.13526079 377.29723466 225.23270545 380.18938447 223.6015625 383.484375 C222.28551092 386.08794587 221.00321332 387.90208955 219.03515625 390.0234375 C216.95511076 392.27423299 216.15778973 393.34303705 215.16015625 396.3359375 C214.50015625 396.3359375 213.84015625 396.3359375 213.16015625 396.3359375 C212.92039062 396.88378906 212.680625 397.43164062 212.43359375 397.99609375 C210.85533842 400.8960169 208.90073948 403.23965758 206.78515625 405.7734375 C203.37216363 409.87579259 203.37216363 409.87579259 200.01953125 414.02734375 C196.22833613 418.73447887 191.78694124 422.48028334 187.16015625 426.3359375 C186.41765625 427.0784375 185.67515625 427.8209375 184.91015625 428.5859375 C179.7095595 433.78653425 174.27231951 439.20858425 168.16015625 443.3359375 C167.50015625 443.3359375 166.84015625 443.3359375 166.16015625 443.3359375 C166.16015625 443.9959375 166.16015625 444.6559375 166.16015625 445.3359375 C164.61328125 446.17125 164.61328125 446.17125 163.03515625 447.0234375 C160.43030788 448.50143999 158.42984068 449.94701788 156.09765625 451.8984375 C153.18597686 454.31451189 150.53063592 455.65069766 147.16015625 457.3359375 C145.5241885 458.48717407 143.90019839 459.65552444 142.28515625 460.8359375 C138.68574034 463.40694887 135.53028789 465.11023838 131.3515625 466.4609375 C128.44282163 467.62235988 125.89895096 469.21189014 123.22265625 470.8359375 C119.08050053 473.30678755 115.29668769 475.20462976 110.6796875 476.546875 C108.0534695 477.32974941 108.0534695 477.32974941 105.171875 478.5625 C95.66112011 482.4499561 85.92245967 485.09638241 75.97265625 487.5859375 C74.9491658 487.84460098 74.9491658 487.84460098 73.90499878 488.10848999 C71.8942361 488.61399371 69.88130649 489.10961704 67.8671875 489.6015625 C66.11112183 490.03130371 66.11112183 490.03130371 64.31958008 490.46972656 C53.98402322 492.72842371 43.88890028 493.65224375 33.3203125 493.671875 C32.0369249 493.6785318 30.75353729 493.6851886 29.43125916 493.69204712 C26.72944781 493.70391584 24.02776323 493.70773928 21.32592773 493.70654297 C18.60625361 493.70638129 15.88725931 493.72014823 13.16772461 493.74755859 C-3.61723427 493.91393243 -19.48114465 493.24869862 -35.83984375 489.3359375 C-36.55002655 489.17039368 -37.26020935 489.00484985 -37.99191284 488.83428955 C-42.30656792 487.81607003 -46.57554833 486.67123382 -50.83984375 485.4609375 C-52.68654663 484.94539307 -52.68654663 484.94539307 -54.57055664 484.41943359 C-62.04233045 482.28265799 -69.19578126 479.9066091 -76.2109375 476.5625 C-78.83472417 475.26984102 -78.83472417 475.26984102 -81.71484375 474.421875 C-85.52154706 473.0990456 -88.88482497 471.28345041 -92.40234375 469.3359375 C-97.3094071 466.60650344 -97.3094071 466.60650344 -102.43359375 464.33203125 C-105.51339737 463.05711254 -108.03740284 461.29206461 -110.77734375 459.3984375 C-113.80114091 457.31104204 -116.69329072 455.4084867 -119.98828125 453.77734375 C-122.59185212 452.46129217 -124.4059958 451.17899457 -126.52734375 449.2109375 C-128.77813924 447.13089201 -129.8469433 446.33357098 -132.83984375 445.3359375 C-132.83984375 444.6759375 -132.83984375 444.0159375 -132.83984375 443.3359375 C-133.38769531 443.09617187 -133.93554688 442.85640625 -134.5 442.609375 C-137.39992315 441.03111967 -139.74356383 439.07652073 -142.27734375 436.9609375 C-146.37969884 433.54794488 -146.37969884 433.54794488 -150.53125 430.1953125 C-155.23838512 426.40411738 -158.98418959 421.96272249 -162.83984375 417.3359375 C-163.58234375 416.5934375 -164.32484375 415.8509375 -165.08984375 415.0859375 C-170.2904405 409.88534075 -175.7124905 404.44810076 -179.83984375 398.3359375 C-179.83984375 397.6759375 -179.83984375 397.0159375 -179.83984375 396.3359375 C-180.49984375 396.3359375 -181.15984375 396.3359375 -181.83984375 396.3359375 C-182.39671875 395.3046875 -182.95359375 394.2734375 -183.52734375 393.2109375 C-185.00534624 390.60608913 -186.45092413 388.60562193 -188.40234375 386.2734375 C-190.81841814 383.36175811 -192.15460391 380.70641717 -193.83984375 377.3359375 C-194.99108032 375.69996975 -196.15943069 374.07597964 -197.33984375 372.4609375 C-199.91085512 368.86152159 -201.61414463 365.70606914 -202.96484375 361.52734375 C-204.12626613 358.61860288 -205.71579639 356.07473221 -207.33984375 353.3984375 C-209.8106938 349.25628178 -211.70853601 345.47246894 -213.05078125 340.85546875 C-213.83365566 338.22925075 -213.83365566 338.22925075 -215.06640625 335.34765625 C-218.95386235 325.83690136 -221.60028866 316.09824092 -224.08984375 306.1484375 C-224.34850723 305.12494705 -224.34850723 305.12494705 -224.61239624 304.08078003 C-225.11789996 302.07001735 -225.61352329 300.05708774 -226.10546875 298.04296875 C-226.39196289 296.8722583 -226.67845703 295.70154785 -226.97363281 294.49536133 C-229.23232996 284.15980447 -230.15615 274.06468153 -230.17578125 263.49609375 C-230.18243805 262.21270615 -230.18909485 260.92931854 -230.19595337 259.60704041 C-230.20782209 256.90522906 -230.21164553 254.20354448 -230.21044922 251.50170898 C-230.21028754 248.78203486 -230.22405448 246.06304056 -230.25146484 243.34350586 C-230.41783868 226.55854698 -229.75260487 210.6946366 -225.83984375 194.3359375 C-225.67429993 193.6257547 -225.5087561 192.9155719 -225.3381958 192.18386841 C-224.31997628 187.86921333 -223.17514007 183.60023292 -221.96484375 179.3359375 C-221.44929932 177.48923462 -221.44929932 177.48923462 -220.92333984 175.60522461 C-218.78656424 168.1334508 -216.41051535 160.97999999 -213.06640625 153.96484375 C-211.77374727 151.34105708 -211.77374727 151.34105708 -210.92578125 148.4609375 C-209.60295185 144.65423419 -207.78735666 141.29095628 -205.83984375 137.7734375 C-203.11040969 132.86637415 -203.11040969 132.86637415 -200.8359375 127.7421875 C-199.56101879 124.66238388 -197.79597086 122.13837841 -195.90234375 119.3984375 C-193.81494829 116.37464034 -191.91239295 113.48249053 -190.28125 110.1875 C-188.96519842 107.58392913 -187.68290082 105.76978545 -185.71484375 103.6484375 C-183.63479826 101.39764201 -182.83747723 100.32883795 -181.83984375 97.3359375 C-181.17984375 97.3359375 -180.51984375 97.3359375 -179.83984375 97.3359375 C-179.60007813 96.78808594 -179.3603125 96.24023438 -179.11328125 95.67578125 C-177.53502592 92.7758581 -175.58042698 90.43221742 -173.46484375 87.8984375 C-170.05185113 83.79608241 -170.05185113 83.79608241 -166.69921875 79.64453125 C-162.90802363 74.93739613 -158.46662874 71.19159166 -153.83984375 67.3359375 C-153.09734375 66.5934375 -152.35484375 65.8509375 -151.58984375 65.0859375 C-146.389247 59.88534075 -140.95200701 54.46329075 -134.83984375 50.3359375 C-134.17984375 50.3359375 -133.51984375 50.3359375 -132.83984375 50.3359375 C-132.83984375 49.6759375 -132.83984375 49.0159375 -132.83984375 48.3359375 C-131.80859375 47.7790625 -130.77734375 47.2221875 -129.71484375 46.6484375 C-127.10999538 45.17043501 -125.10952818 43.72485712 -122.77734375 41.7734375 C-119.86566436 39.35736311 -117.21032342 38.02117734 -113.83984375 36.3359375 C-112.203876 35.18470093 -110.57988589 34.01635056 -108.96484375 32.8359375 C-105.36542784 30.26492613 -102.20997539 28.56163662 -98.03125 27.2109375 C-95.12250913 26.04951512 -92.57863846 24.45998486 -89.90234375 22.8359375 C-85.76018803 20.36508745 -81.97637519 18.46724524 -77.359375 17.125 C-74.733157 16.34212559 -74.733157 16.34212559 -71.8515625 15.109375 C-62.34080761 11.2219189 -52.60214717 8.57549259 -42.65234375 6.0859375 C-41.6288533 5.82727402 -41.6288533 5.82727402 -40.58468628 5.56338501 C-38.5739236 5.05788129 -36.56099399 4.56225796 -34.546875 4.0703125 C-33.37616455 3.78381836 -32.2054541 3.49732422 -30.99926758 3.20214844 C-20.66371072 0.94345129 -10.56858778 0.01963125 0 0 Z " fill="#000000" transform="translate(239.83984375,9.6640625)"/>
<path d="M0 0 C0.70447266 0.15065918 1.40894531 0.30131836 2.13476562 0.45654297 C28.80223546 6.30339135 51.47197252 21.16023142 67 44 C67.93786982 45.95761716 68.64247346 47.85491447 69.28515625 49.92578125 C70.45829954 53.32981998 72.22336725 56.43413432 73.9140625 59.60546875 C78.03774925 68.69834638 77.73037158 83.54326272 75.05859375 93.01953125 C73.87732199 96.14119925 72.55344291 99.04802815 71 102 C70.62746094 102.80179687 70.25492187 103.60359375 69.87109375 104.4296875 C64.40495742 115.43814325 53.69067471 127.01822874 41.875 131 C40.58936416 131.35588535 39.29950433 131.69866566 38 132 C38 132.66 38 133.32 38 134 C36.02187996 134.77351525 34.04244071 135.54365704 32.0625 136.3125 C30.40927734 136.95638672 30.40927734 136.95638672 28.72265625 137.61328125 C21.13527649 140.43963992 13.78210629 142.59647855 5.8125 144.0625 C-0.71092733 145.24395782 -0.71092733 145.24395782 -7.078125 147.046875 C-10.84928398 148.27703916 -14.64427645 148.69607532 -18.5625 149.1875 C-28.79479376 150.58267984 -38.72742282 152.96746395 -48.73461914 155.48706055 C-55.03419543 157.06942678 -61.29284039 158.44917871 -67.69262695 159.55493164 C-70.44246591 160.08534709 -72.96361884 160.89878185 -75.5625 161.9375 C-81.42950519 164.18762983 -87.37466586 165.99004379 -93.42578125 167.67578125 C-101.35410829 169.93921114 -109.01603251 172.89526246 -116.3125 176.75 C-119.52943265 178.24624774 -122.48683228 178.64868323 -126 179 C-126 179.66 -126 180.32 -126 181 C-130.98216654 183.58648646 -135.92696391 186.02830905 -141.1875 188 C-145.7202381 189.74171354 -149.12819154 192.09614365 -153 195 C-153.66 195 -154.32 195 -155 195 C-155 195.66 -155 196.32 -155 197 C-161.625 200.875 -161.625 200.875 -165 202 C-165.68964659 203.32159366 -166.35419874 204.65643647 -167 206 C-168.55078125 207.52734375 -168.55078125 207.52734375 -170.3125 208.9375 C-172.592194 210.80571396 -174.61629465 212.63062709 -176.6875 214.75 C-178.76304007 216.76944439 -180.34651371 217.91895003 -183 219 C-186.31992058 211.20540385 -188.39110363 204.01384129 -185.5 195.75 C-183.60675584 191.56389959 -181.35464723 189.03728177 -177.7109375 186.29296875 C-175.78987861 184.92017972 -175.78987861 184.92017972 -173.6875 182.5 C-170.60536173 179.63289463 -167.38359504 177.70971456 -163.75390625 175.60546875 C-160.8995561 173.94144335 -158.10271397 172.20681037 -155.3125 170.4375 C-154.46300781 169.89996094 -153.61351562 169.36242187 -152.73828125 168.80859375 C-150.65493189 167.4325727 -148.66150806 166.01694655 -146.65625 164.53515625 C-143.02137999 161.92118957 -139.21472071 159.93702682 -135.1875 158 C-133.77468083 157.30871382 -132.3619203 156.61730778 -130.94921875 155.92578125 C-130.27165527 155.59658691 -129.5940918 155.26739258 -128.89599609 154.92822266 C-126.4141956 153.71320779 -123.95838367 152.44908914 -121.5 151.1875 C-118.18539425 149.53293647 -114.86210774 148.10905503 -111.36328125 146.875 C-108.84446386 145.94241307 -106.38064628 144.89885053 -103.90576172 143.85644531 C-96.60661862 140.81560322 -89.34942452 138.66254533 -81.65625 136.8671875 C-78.62464729 136.14815352 -75.66433368 135.3512749 -72.6875 134.4375 C-71.90761719 134.19902344 -71.12773437 133.96054688 -70.32421875 133.71484375 C-68.74326313 133.22860026 -67.16254248 132.74159227 -65.58203125 132.25390625 C-59.1786328 130.38423015 -52.76987807 129.24278566 -46.1953125 128.1953125 C-34.69775521 126.34271606 -23.22097182 124.17397958 -12.12890625 120.5859375 C-9.20668976 119.78165773 -6.31936514 119.50201757 -3.30078125 119.30859375 C9.23547181 117.62716083 22.75203947 112.09264529 33.8125 106.1015625 C36 105 36 105 38 105 C38.268125 104.360625 38.53625 103.72125 38.8125 103.0625 C40 101 40 101 43 100 C43.73080266 98.02253397 44.39421747 96.01927511 45 94 C45.99 92.515 45.99 92.515 47 91 C50.84302272 81.17894193 49.77860088 69.00584255 47 59 C45.64305809 56.05569208 43.94906357 53.58075453 42 51 C41.54496094 50.32195312 41.08992187 49.64390625 40.62109375 48.9453125 C37.54828233 44.50773742 34.27616818 41.38339782 29.83203125 38.32421875 C28 37 28 37 26.57421875 35.45703125 C24.55156915 33.5849511 22.58211007 32.95385307 20 32 C17.89253039 31.00697975 15.78856589 30.00649863 13.6875 29 C-1.01146242 22.2044167 -16.09230215 22.60158051 -32 23 C-32.72670898 23.01305176 -33.45341797 23.02610352 -34.20214844 23.03955078 C-50.24071025 23.51080729 -66.14542059 31.09235536 -78.88012695 40.49682617 C-81 42 -81 42 -84.3125 43.625 C-87.55900532 45.28600272 -89.44683898 47.39173479 -92 50 C-94.01871772 51.94172849 -96.0690334 53.84784636 -98.125 55.75 C-98.64964844 56.24371094 -99.17429687 56.73742187 -99.71484375 57.24609375 C-102.13569655 59.48308432 -103.83456777 60.94485592 -107 62 C-107.34632831 63.33001714 -107.67721035 64.66407495 -108 66 C-109.56640625 68.12109375 -109.56640625 68.12109375 -111.5625 70.4375 C-125.77416941 87.7452831 -134.35100654 107.35038303 -139 129 C-139.20625 129.95519531 -139.4125 130.91039062 -139.625 131.89453125 C-139.79 132.69246094 -139.955 133.49039063 -140.125 134.3125 C-140.28226563 135.0653125 -140.43953125 135.818125 -140.6015625 136.59375 C-141.05677621 139.10431857 -141.05677621 139.10431857 -141.2109375 142.09375 C-141.50077845 145.32116814 -141.82422968 147.97595436 -143 151 C-146.42494171 153.80915596 -150.48160121 156 -155 156 C-155 156.66 -155 157.32 -155 158 C-161.625 160.875 -161.625 160.875 -165 162 C-165 162.66 -165 163.32 -165 164 C-167.475 164.99 -167.475 164.99 -170 166 C-170.88336063 144.99564733 -168.09594139 121.28982166 -159.3515625 102.00390625 C-158.04995394 99.1110248 -156.89924076 96.19495314 -155.76416016 93.23461914 C-153.63163586 87.69618783 -151.38341256 82.51681014 -148.03515625 77.5859375 C-146.6801649 75.50998849 -145.80372996 73.33812353 -145 71 C-144.34 71 -143.68 71 -143 71 C-142.731875 70.2575 -142.46375 69.515 -142.1875 68.75 C-141.04723249 66.10938051 -139.90619694 64.14447156 -138 62 C-137.34 62 -136.68 62 -136 62 C-135.89945313 61.41734375 -135.79890625 60.8346875 -135.6953125 60.234375 C-134.87224498 57.58946139 -133.74636859 56.28081255 -131.875 54.25 C-131.2459375 53.55777344 -130.616875 52.86554688 -129.96875 52.15234375 C-129.3190625 51.44207031 -128.669375 50.73179687 -128 50 C-126.78882309 48.60663334 -125.58039877 47.21086831 -124.375 45.8125 C-120.22845739 41.08284983 -115.93245686 36.90428276 -111 33 C-109.9218675 32.13803022 -108.84374292 31.27605053 -107.765625 30.4140625 C-101.35406438 25.31599705 -94.95295693 20.35120531 -88 16 C-87.13375 15.443125 -86.2675 14.88625 -85.375 14.3125 C-82.98736814 12.99301924 -80.56024457 11.90433537 -78.03515625 10.875 C-76.6032648 10.25936913 -75.19517732 9.586829 -73.80859375 8.875 C-64.66855836 4.29783048 -54.91730615 2.20954419 -45 0 C-43.92621094 -0.25007813 -42.85242188 -0.50015625 -41.74609375 -0.7578125 C-28.31494742 -3.47078943 -13.32800937 -2.93277626 0 0 Z " fill="#F9FAFA" transform="translate(291,103)"/>
<path d="M0 0 C3.09391379 0.81913996 5.5327189 1.76777145 8.18359375 3.578125 C13.12873728 13.38373495 9.63576491 24.98430465 6.45703125 34.828125 C4.98183648 38.97812346 3.10152311 42.86742529 1.08203125 46.77734375 C0.10269962 48.6622634 0.10269962 48.6622634 -0.75390625 51.078125 C-2.93144311 56.20174113 -5.86111916 60.67731844 -9.81640625 64.578125 C-10.22890625 65.320625 -10.64140625 66.063125 -11.06640625 66.828125 C-13.07469845 69.98401275 -15.43877709 72.2903377 -18.1171875 74.87890625 C-19.9717677 76.66773077 -19.9717677 76.66773077 -21.94140625 79.265625 C-24.00165646 81.80660025 -26.2418671 83.56872859 -28.81640625 85.578125 C-29.64140625 86.42375 -30.46640625 87.269375 -31.31640625 88.140625 C-33.70815531 90.47258033 -35.95950996 91.89328873 -38.81640625 93.578125 C-39.36683594 94.17496094 -39.91726563 94.77179688 -40.484375 95.38671875 C-43.54202441 98.25998729 -46.89770196 100.08011319 -50.56640625 102.078125 C-51.24445313 102.45582031 -51.9225 102.83351563 -52.62109375 103.22265625 C-81.88291389 119.41122975 -117.11316405 127.7504888 -150.17578125 118.4375 C-155.77375579 116.69335742 -160.79870138 114.62305702 -165.81640625 111.578125 C-166.86828125 111.330625 -167.92015625 111.083125 -169.00390625 110.828125 C-173.34599108 109.69336849 -176.53433206 107.15001599 -180.109375 104.51953125 C-183.83163599 101.85003094 -187.7383622 99.51277136 -191.6640625 97.15625 C-193.81640625 95.578125 -193.81640625 95.578125 -194.81640625 92.578125 C-195.51765625 92.35125 -196.21890625 92.124375 -196.94140625 91.890625 C-200.65524852 90.19517527 -202.40430364 87.7788485 -204.9765625 84.671875 C-207.21135624 82.12867024 -209.66978298 80.07435363 -212.3359375 78 C-213.81640625 76.578125 -213.81640625 76.578125 -214.703125 74.71875 C-215.76436632 72.39663534 -215.76436632 72.39663534 -218.0625 70.43359375 C-221.72487007 66.63615755 -224.20404999 62.41601075 -226.87890625 57.890625 C-227.65331055 56.61928711 -227.65331055 56.61928711 -228.44335938 55.32226562 C-231.84814673 49.61870464 -234.64913583 43.86383259 -236.81640625 37.578125 C-237.05883057 36.88759033 -237.30125488 36.19705566 -237.55102539 35.4855957 C-237.81640625 33.578125 -237.81640625 33.578125 -235.75390625 30.453125 C-230.66958752 24.90988914 -224.13165169 20.60206985 -217.81640625 16.578125 C-217.15640625 16.578125 -216.49640625 16.578125 -215.81640625 16.578125 C-215.14456007 18.68064361 -214.47909657 20.78520263 -213.81640625 22.890625 C-213.25953125 24.64826172 -213.25953125 24.64826172 -212.69140625 26.44140625 C-211.81640625 29.578125 -211.81640625 29.578125 -211.81640625 32.578125 C-211.15640625 32.578125 -210.49640625 32.578125 -209.81640625 32.578125 C-208.33140625 37.528125 -208.33140625 37.528125 -206.81640625 42.578125 C-206.15640625 42.578125 -205.49640625 42.578125 -204.81640625 42.578125 C-203.82640625 45.878125 -202.83640625 49.178125 -201.81640625 52.578125 C-201.15640625 52.578125 -200.49640625 52.578125 -199.81640625 52.578125 C-198.48021004 54.23583421 -197.22178486 55.95664516 -196.00390625 57.703125 C-195.28203125 58.71375 -194.56015625 59.724375 -193.81640625 60.765625 C-193.15640625 61.69375 -192.49640625 62.621875 -191.81640625 63.578125 C-186.28049007 71.05909281 -178.81687639 76.90170486 -170.81640625 81.578125 C-170.00042969 82.13371094 -169.18445313 82.68929687 -168.34375 83.26171875 C-161.7462828 87.72968673 -155.47169243 90.45114728 -147.81640625 92.578125 C-147.18557129 92.75472656 -146.55473633 92.93132812 -145.90478516 93.11328125 C-141.55588155 94.32407359 -137.19767334 95.48919864 -132.81640625 96.578125 C-132.03523438 96.7740625 -131.2540625 96.97 -130.44921875 97.171875 C-114.27537389 99.66754246 -97.70088829 97.11105306 -82.81640625 90.578125 C-81.19969888 90.1109114 -79.57499016 89.66989577 -77.94140625 89.265625 C-73.28682343 87.93372002 -69.80171724 85.84121547 -65.921875 82.98046875 C-63.6370792 81.45868453 -61.36002816 80.59477639 -58.81640625 79.578125 C-54.39266903 76.69486983 -50.48452949 73.36851902 -46.81640625 69.578125 C-45.92953125 68.8975 -45.04265625 68.216875 -44.12890625 67.515625 C-36.023478 60.80556161 -30.42103327 51.91378057 -25.81640625 42.578125 C-25.15640625 42.578125 -24.49640625 42.578125 -23.81640625 42.578125 C-23.64625 41.96066406 -23.47609375 41.34320313 -23.30078125 40.70703125 C-22.09694161 36.4999959 -20.86963005 32.54338786 -18.87890625 28.640625 C-16.27698373 23.19131557 -15.45689493 17.24710115 -14.56274414 11.31665039 C-13.8326978 7.18613604 -13.14736344 4.36971655 -9.96484375 1.5 C-5.97666718 -0.93447006 -4.39583716 -0.80059092 0 0 Z " fill="#FAFAFA" transform="translate(368.81640625,286.421875)"/>
<path d="M0 0 C-1.39332574 3.36720387 -2.9789286 4.9859524 -6 7 C-6.66 6.67 -7.32 6.34 -8 6 C-3.38461538 0 -3.38461538 0 0 0 Z " fill="#DADDDF" transform="translate(141,312)"/>
</svg>
