<?xml version="1.0" encoding="UTF-8"?>
<svg version="1.1" xmlns="http://www.w3.org/2000/svg" width="587" height="587">
<path d="M0 0 C4.10490526 0.02672799 8.20964508 0.00642534 12.31457686 -0.00752878 C20.32048292 -0.02752375 28.32571933 -0.00535578 36.33154197 0.03187242 C45.67372754 0.07373049 55.01577441 0.07311937 64.35803609 0.0711821 C81.03073198 0.06918718 97.70311903 0.10562898 114.37570357 0.16391897 C130.52354719 0.22034437 146.67111941 0.24859755 162.81906295 0.24595022 C164.31338038 0.24571048 164.31338038 0.24571048 165.83788605 0.2454659 C167.32972688 0.24522378 167.32972688 0.24522378 168.85170591 0.24497676 C187.29292354 0.24221343 205.73402689 0.2657882 224.17520738 0.30158962 C230.67608072 0.31361726 237.17693293 0.31790325 243.67781615 0.31971884 C251.60003669 0.32245513 259.52206417 0.34042303 267.44420286 0.37705007 C271.48037133 0.3954357 275.51629402 0.40773616 279.55250716 0.40267324 C283.25456718 0.39825473 286.95608588 0.41259539 290.65803318 0.44126734 C292.61472408 0.45182203 294.57149042 0.44314657 296.5281862 0.43353915 C303.88168689 0.51330106 310.08573191 1.58759047 317.04089081 4.00279069 C319.90698871 4.97410041 322.7381277 5.66830739 325.69552779 6.29966116 C349.11445109 12.04625711 373.40757765 26.41913457 388.94552779 44.98716116 C389.27552779 45.97716116 389.60552779 46.96716116 389.94552779 47.98716116 C391.40369124 49.17399021 392.86314638 50.35930725 394.33224654 51.53257132 C397.09516969 54.02371782 398.96262605 57.05210607 400.94552779 60.17466116 C401.5927983 61.17529593 401.5927983 61.17529593 402.25314498 62.19614553 C403.10796195 63.52358074 403.95805982 64.85406912 404.80294967 66.18784475 C405.75660998 67.68965597 406.73134561 69.17805763 407.71115279 70.66294241 C416.23974947 84.01692931 420.66005806 99.9242351 424.13302779 115.23716116 C424.38366988 116.33604666 424.38366988 116.33604666 424.63937545 117.45713186 C427.08710199 128.66348443 427.05957417 139.67714503 426.98312545 151.08164358 C426.97457262 152.92615358 426.96647176 154.77066573 426.95878482 156.61517954 C426.93651771 161.6373036 426.90773483 166.6593718 426.87778521 171.68145514 C426.84703945 177.02320694 426.82229661 182.36498697 426.79673934 187.70676565 C426.73494641 200.34761274 426.66341639 212.98839709 426.59076428 225.62918568 C426.55715269 231.51800762 426.52464437 237.40683562 426.4920671 243.29566336 C426.38842603 261.97545764 426.28340497 280.6552421 426.17088485 299.33498526 C426.04386879 320.45859646 425.92228123 341.58210243 425.84297347 362.70595217 C425.80321092 373.27870524 425.75254197 383.85133469 425.68924117 394.42397928 C425.65592587 400.05462656 425.62870435 405.68512659 425.61795211 411.31586599 C425.60804798 416.41698134 425.58028623 421.51766954 425.53790259 426.61861563 C425.52618803 428.3963548 425.52081287 430.17415243 425.52318168 431.95192862 C425.53947199 448.37531352 422.60322695 463.40946955 416.25802779 478.61216116 C415.82449996 479.67120657 415.39097213 480.73025198 414.94430709 481.82138968 C408.30554222 497.68850855 399.72072802 512.36352948 387.94552779 524.98716116 C387.37576217 525.60977835 386.80599654 526.23239553 386.21896529 526.87387991 C382.11518235 531.17848627 377.66780475 534.93365271 373.00802779 538.61216116 C372.44720504 539.05535696 371.88638228 539.49855276 371.3085649 539.95517874 C363.78235209 545.79379343 356.16157234 550.74252079 347.38302779 554.48716116 C346.04304732 555.05962576 346.04304732 555.05962576 344.67599654 555.6436553 C330.81788339 561.32734794 315.90296618 564.84217859 301.04318404 566.66294241 C298.96273809 566.77301774 298.96273809 566.77301774 297.94552779 567.98716116 C296.2829391 568.0870612 294.61608042 568.11639728 292.95049453 568.11858892 C291.86171775 568.12243007 290.77294098 568.12627121 289.65117097 568.13022876 C288.44003113 568.12936228 287.2288913 568.12849579 285.98105025 568.12760305 C284.06828205 568.13205974 284.06828205 568.13205974 282.11687207 568.13660645 C278.56045211 568.14470577 275.0040523 568.14646767 271.44762421 568.14720392 C267.61769113 568.14904967 263.78776863 568.15659508 259.95784163 568.16333914 C251.5706647 568.17694891 243.18349252 568.18295272 234.79630637 568.1873498 C229.55596097 568.19011062 224.31561742 568.19434796 219.07527328 568.19885397 C204.56068451 568.21105549 190.04609723 568.22134954 175.53150344 568.22472906 C174.60151757 568.22494863 173.67153171 568.22516819 172.71336445 568.22539441 C171.78114674 568.22561269 170.84892904 568.22583097 169.88846231 568.22605586 C167.99944377 568.22649932 166.11042523 568.22694589 164.2214067 568.22739553 C162.81587839 568.22772768 162.81587839 568.22772768 161.38195556 568.22806653 C146.23271014 568.23200604 131.08351308 568.24943011 115.9342863 568.27275506 C100.37276986 568.29652055 84.81127761 568.30893346 69.24974275 568.31009698 C60.51616483 568.3110114 51.78264973 568.31670387 43.04908919 568.33491659 C35.60338768 568.35038858 28.15776833 568.35539689 20.71205378 568.34717849 C16.9185797 568.34329546 13.12527071 568.34408488 9.33181739 568.35823584 C-5.40451325 568.41004431 -19.65078449 568.42347411 -34.05447221 564.98716116 C-35.28156152 564.72217951 -36.50865083 564.45719786 -37.77292466 564.18418646 C-52.33917514 561.02544675 -65.42224049 556.94787733 -78.05447221 548.98716116 C-79.11150346 548.35036428 -80.16853471 547.71356741 -81.25759721 547.05747366 C-89.51888658 541.84550838 -96.82710359 535.52299354 -104.05447221 528.98716116 C-104.81759721 528.29751272 -105.58072221 527.60786428 -106.36697221 526.89731741 C-123.61770832 510.44651463 -134.22302548 488.53977264 -140.74197221 465.92466116 C-141.12198425 464.63990502 -141.50284218 463.35539877 -141.88455033 462.07114553 C-142.96882279 458.38310536 -144.03939419 454.69465779 -145.05447221 450.98716116 C-145.30114691 450.14099938 -145.54782162 449.2948376 -145.80197132 448.42303455 C-147.85520021 440.95700065 -148.48205279 434.11493612 -148.43542314 426.39478445 C-148.44010311 425.18471617 -148.44478308 423.97464789 -148.44960487 422.72791088 C-148.45942882 419.40368818 -148.45599064 416.07998143 -148.44664621 412.75579119 C-148.43981319 409.15619553 -148.45035875 405.55664254 -148.45858598 401.95705557 C-148.47188777 394.91404862 -148.46905934 387.87113791 -148.46034805 380.82812728 C-148.45354819 375.09020017 -148.45266473 369.35229986 -148.4559195 363.61436987 C-148.4563792 362.79482442 -148.4568389 361.97527898 -148.45731253 361.13089883 C-148.45827184 359.46530617 -148.45924448 357.79971351 -148.46023031 356.13412087 C-148.46877633 340.5287223 -148.4589675 324.92337665 -148.44282921 309.31798677 C-148.42947195 295.99121353 -148.43171758 282.66451887 -148.44558549 269.3377471 C-148.46173372 253.81269347 -148.46790511 238.28768644 -148.4587487 222.76262558 C-148.45779323 221.09796247 -148.45685011 219.43329935 -148.4559195 217.76863623 C-148.45545668 216.94992847 -148.45499385 216.13122072 -148.454517 215.28770364 C-148.45195124 209.58041108 -148.45624621 203.87314856 -148.46335816 198.16586065 C-148.47187878 191.17496201 -148.46927817 184.18416403 -148.45351593 177.19327654 C-148.44576512 173.64115311 -148.44230693 170.08919582 -148.45246339 166.53707457 C-148.48328724 152.27847265 -148.12300997 138.14190133 -146.80755448 123.94574881 C-146.70339199 122.75018791 -146.59922951 121.55462701 -146.49191058 120.322837 C-143.76791948 94.0692386 -130.02936331 67.13137195 -112.05447221 47.98716116 C-111.2952144 47.10028616 -110.53595658 46.21341116 -109.75369096 45.29966116 C-101.83972539 36.07841531 -92.59083129 29.10605287 -82.39040971 22.61606741 C-79.96104089 21.19851794 -79.96104089 21.19851794 -79.05447221 18.98716116 C-77.06738008 18.28295286 -75.06356483 17.62590312 -73.05447221 16.98716116 C-71.03807958 16.16196736 -69.04556253 15.29007462 -67.05027473 14.4151938 C-63.6727995 12.95356228 -60.2699601 11.5563985 -56.8661871 10.15729904 C-55.09802187 9.42145021 -53.33583304 8.67089706 -51.58290434 7.89945507 C-34.55905022 0.4624087 -18.23799007 -0.15869209 0 0 Z " fill="#262425" transform="translate(153.05447220802307,8.01283884048462)"/>
<path d="M0 0 C0.70914551 0.01401855 1.41829102 0.02803711 2.14892578 0.04248047 C31.12795139 0.77014433 63.06963188 14.36918575 85 33 C86.33417969 34.12728516 86.33417969 34.12728516 87.6953125 35.27734375 C105.41131436 50.74579313 117.44476262 70.51460759 119.25 94.29296875 C119.9924041 115.19628431 110.06518551 133.70205039 96.6875 149.0625 C95.14026452 150.72269155 93.57737169 152.36841422 92 154 C91.20207031 154.8353125 90.40414063 155.670625 89.58203125 156.53125 C75.60789571 170.23055382 57.15289707 175.8694936 39 182 C38.22664307 182.26973633 37.45328613 182.53947266 36.65649414 182.81738281 C30.6652928 184.88299097 24.5869476 186.47763555 18.4375 188 C17.37321777 188.26490234 16.30893555 188.52980469 15.21240234 188.80273438 C8.28678549 190.50188617 1.38281776 191.92886805 -5.640625 193.16015625 C-11.34787669 194.21012672 -16.97922236 195.60236647 -22.625 196.9375 C-30.88581144 198.8890466 -39.13333144 200.63196431 -47.5 202.0625 C-54.69888329 203.3002274 -61.6068323 204.9159133 -68.60253906 207.00195312 C-77.27564665 209.50607984 -86.15268947 211.10658912 -95.01757812 212.76904297 C-102.42449511 214.1831086 -109.61623085 215.93408341 -116.84716797 218.07397461 C-119.46096158 218.84167781 -122.07070909 219.55042922 -124.71484375 220.203125 C-137.4319893 223.34401778 -149.70748797 227.48949728 -162 232 C-162.72735352 232.26425781 -163.45470703 232.52851563 -164.20410156 232.80078125 C-173.17284559 236.09093355 -181.50060167 240.2224742 -189.87109375 244.77734375 C-193.57635743 246.79113007 -197.33197487 248.65694044 -201.125 250.5 C-224.6839714 262.26599259 -243.52236317 279.27595066 -260.50878906 299.34545898 C-262.46121982 301.51173653 -264.68849059 303.23237516 -267 305 C-267.33 305.66 -267.66 306.32 -268 307 C-271 306 -271 306 -272.6875 304 C-275.73116455 297.04305245 -274.02029367 290.16546882 -271.51171875 283.23828125 C-266.27933261 272.02988819 -257.52265979 262.80038394 -249 254 C-248.51241211 253.48663086 -248.02482422 252.97326172 -247.52246094 252.44433594 C-235.95507696 240.27409156 -223.23895977 232.27140977 -208.50390625 224.359375 C-205.42912427 222.69007059 -202.38954078 220.96374202 -199.35205078 219.2277832 C-194.12291608 216.24015333 -188.92488964 213.3302641 -183.359375 211.0078125 C-180.88957494 209.95283168 -178.47377 208.80182723 -176.05249023 207.640625 C-166.9575172 203.29732593 -157.65242832 199.55174082 -148.26660156 195.88720703 C-146.3069434 195.12014566 -144.35220942 194.34052633 -142.3984375 193.55859375 C-129.84105027 188.58861047 -116.90378877 184.94059787 -103.91333008 181.30322266 C-98.99583404 179.91068103 -94.15773321 178.39791677 -89.33886719 176.6965332 C-79.61699688 173.26651791 -69.80623398 171.15128493 -59.703125 169.1484375 C-48.56690714 166.93957053 -37.64878943 163.93342911 -26.72485352 160.85986328 C-21.68967887 159.44890476 -16.63893319 158.12894934 -11.5625 156.875 C-10.89444336 156.70838867 -10.22638672 156.54177734 -9.53808594 156.37011719 C-6.78328164 155.68382296 -4.02785883 155.00643813 -1.26171875 154.3671875 C22.0704816 148.6339252 46.10036949 136.71329023 58.9140625 115.75390625 C67.0932811 101.56749779 69.05684134 86.21714192 66.3515625 70.1484375 C62.15039322 55.39048387 53.622578 43.49209609 40.3125 35.8125 C24.97996941 27.36650878 11.31925596 23.60934801 -6.25 23.6875 C-7.53253662 23.69168945 -8.81507324 23.69587891 -10.13647461 23.70019531 C-19.12589201 23.80753164 -27.34212699 24.43142386 -36 27 C-37.48113281 27.41765625 -37.48113281 27.41765625 -38.9921875 27.84375 C-57.64718724 33.58374992 -75.44139845 42.91965645 -90 56 C-90.51208008 56.45761719 -91.02416016 56.91523438 -91.55175781 57.38671875 C-101.51834196 66.42928723 -109.15740543 76.62567059 -116.55957031 87.82519531 C-117.72375542 89.58291751 -118.91620245 91.32190096 -120.1171875 93.0546875 C-132.17716677 110.89456467 -139.89663475 132.28572136 -143.390625 153.44140625 C-144.11203682 157.6542663 -145.15110587 161.72364359 -146.27734375 165.84375 C-146.84573626 168.3262427 -147.22106448 170.63752971 -147.50390625 173.15625 C-148.81385243 183.96967966 -148.81385243 183.96967966 -151.9921875 186.73046875 C-154.63930364 187.76648066 -157.22637711 188.38280305 -160 189 C-162.01546373 189.77334482 -164.0156729 190.58743988 -166 191.4375 C-167.36125 191.99244141 -167.36125 191.99244141 -168.75 192.55859375 C-171.42345565 193.74429704 -173.97171421 195.02129017 -176.5625 196.37109375 C-182.51534761 199.372581 -188.69046624 201.50230303 -195 203.625 C-196.11117187 204.0065625 -197.22234375 204.388125 -198.3671875 204.78125 C-204.8707033 207.00009657 -211.4009236 209.08395891 -218 211 C-219.47097506 177.28920465 -208.00500438 141.29280304 -192 112 C-191.44957031 110.98421875 -190.89914063 109.9684375 -190.33203125 108.921875 C-180.39572478 91.2678198 -167.86686636 75.69650793 -154 61 C-153.19820313 60.1440625 -152.39640625 59.288125 -151.5703125 58.40625 C-144.92849147 51.52488789 -137.62818323 45.72873056 -130 40 C-128.82244141 39.09507813 -128.82244141 39.09507813 -127.62109375 38.171875 C-114.08131697 28.19264775 -98.66969842 20.06836081 -83 14 C-82.02015137 13.61835693 -82.02015137 13.61835693 -81.02050781 13.22900391 C-54.10256264 2.90458098 -28.72688651 -0.67951473 0 0 Z " fill="#FAFAFB" transform="translate(349,72)"/>
<path d="M0 0 C1.18835449 -0.00644531 2.37670898 -0.01289062 3.60107422 -0.01953125 C14.61149315 0.14037429 25.03703758 2.12652373 35.0625 6.75 C35.7335376 7.05373535 36.4045752 7.3574707 37.09594727 7.67041016 C53.91014588 15.47103969 64.56913611 26.24597746 72.1015625 43.10546875 C76.90422208 57.22169713 75.06547341 74.1944255 68.9375 87.5 C62.18047884 101.07824204 53.41258292 109.28071245 40.9375 117.5 C39.96683594 118.14195312 38.99617187 118.78390625 37.99609375 119.4453125 C25.03869638 127.48286358 11.18154755 131.73151265 -3.66210938 134.72485352 C-9.35908284 135.87901461 -14.86020871 137.22656935 -20.375 139.0625 C-26.85967991 141.20608442 -33.34881224 142.78547486 -40.03833008 144.15649414 C-42.94705244 144.7608485 -45.72232624 145.36111147 -48.47827148 146.48632812 C-51.0880037 147.51000391 -53.52217744 148.09287426 -56.2734375 148.61328125 C-57.26303467 148.80656006 -58.25263184 148.99983887 -59.2722168 149.19897461 C-60.31676025 149.40143799 -61.36130371 149.60390137 -62.4375 149.8125 C-70.6209709 151.45699899 -78.37310554 153.37222048 -86.234375 156.18359375 C-90.92437446 157.84474018 -95.71126092 159.15689531 -100.5 160.5 C-116.76231622 164.85236393 -116.76231622 164.85236393 -132.4375 170.875 C-134.231875 171.679375 -134.231875 171.679375 -136.0625 172.5 C-138.42699336 171.31775332 -139.49676315 169.95903319 -141.1875 167.9375 C-141.72632813 167.29683594 -142.26515625 166.65617188 -142.8203125 165.99609375 C-143.23023438 165.50238281 -143.64015625 165.00867188 -144.0625 164.5 C-146.08295442 165.10183749 -148.08361039 165.77306096 -150.0625 166.5 C-150.5575 167.49 -150.5575 167.49 -151.0625 168.5 C-151.7225 168.5 -152.3825 168.5 -153.0625 168.5 C-153.5575 169.49 -153.5575 169.49 -154.0625 170.5 C-154.0625 169.51 -154.0625 168.52 -154.0625 167.5 C-155.3825 167.83 -156.7025 168.16 -158.0625 168.5 C-157.0625 166.5 -157.0625 166.5 -154.33984375 165.4296875 C-152.68662109 164.90761719 -152.68662109 164.90761719 -151 164.375 C-149.34291016 163.84519531 -149.34291016 163.84519531 -147.65234375 163.3046875 C-146.79769531 163.03914062 -145.94304687 162.77359375 -145.0625 162.5 C-144.84335938 161.36949219 -144.62421875 160.23898438 -144.3984375 159.07421875 C-143.52176672 154.5919317 -142.61846747 150.11536657 -141.70410156 145.640625 C-141.27064475 143.51886381 -140.84038659 141.39644704 -140.41308594 139.2734375 C-134.40853363 109.69642877 -125.17283404 83.77217184 -107.33691406 59.26220703 C-106.17754381 57.65907782 -105.05165534 56.03186847 -103.9296875 54.40234375 C-94.32751419 40.83881757 -82.2202519 29.19018019 -68.0625 20.5 C-67.13695312 19.901875 -66.21140625 19.30375 -65.2578125 18.6875 C-45.24586562 6.27011468 -23.47941439 0.12005325 0 0 Z " fill="#272527" transform="translate(343.0625,94.5)"/>
<path d="M0 0 C1.04542969 0.4640625 2.09085937 0.928125 3.16796875 1.40625 C15.46631837 7.40682565 24.20218381 17.13312932 29 30 C34.00883729 46.60709775 32.49791138 66.72400492 27 83 C26.66097656 84.20785156 26.32195312 85.41570312 25.97265625 86.66015625 C19.65422337 108.04389172 6.20276938 125.14381646 -9 141 C-10.06734375 142.12921875 -10.06734375 142.12921875 -11.15625 143.28125 C-43.61128218 176.8003816 -97.05539607 201.13368976 -143.98501587 202.24082947 C-144.68605438 202.25159012 -145.3870929 202.26235077 -146.109375 202.2734375 C-146.86576263 202.28601089 -147.62215027 202.29858429 -148.40145874 202.3115387 C-198.81359331 202.98525696 -244.0378862 188.25090483 -281 153 C-282.36808462 151.82523169 -283.7424016 150.65765184 -285.125 149.5 C-312.71068008 125.44802274 -336.35391528 85.24143193 -340.3671875 48.65234375 C-340 46 -340 46 -338.33984375 43.98046875 C-325.75302977 34.58640759 -312.47755787 27.61674697 -298.26416016 21.06103516 C-293.75247501 18.94676045 -289.32161306 16.67234015 -284.8828125 14.41015625 C-282.29017589 13.14194241 -279.69495869 12.02925544 -277 11 C-276.68329347 12.64502905 -276.371909 14.29108277 -276.0625 15.9375 C-275.80146484 17.31228516 -275.80146484 17.31228516 -275.53515625 18.71484375 C-275.11843321 21.27297567 -274.81987692 23.76823855 -274.57421875 26.34375 C-274.08466065 30.90929717 -273.0365247 35.16293962 -271.75 39.5625 C-271.52892578 40.33480957 -271.30785156 41.10711914 -271.08007812 41.90283203 C-270.39677958 44.2716326 -269.70045256 46.63622066 -269 49 C-268.68192383 50.084021 -268.68192383 50.084021 -268.35742188 51.18994141 C-257.25955063 88.78876382 -234.96778078 118.50053902 -203 141 C-202.31035156 141.52207031 -201.62070312 142.04414063 -200.91015625 142.58203125 C-190.78651317 149.94644723 -178.07998884 154.15128621 -166 157 C-164.99195313 157.26554688 -163.98390625 157.53109375 -162.9453125 157.8046875 C-154.60375881 159.98888485 -146.63714731 161.14784475 -138.01171875 161.203125 C-137.27502457 161.21013931 -136.53833038 161.21715363 -135.77931213 161.22438049 C-133.41531185 161.24178378 -131.05156198 161.24823238 -128.6875 161.25 C-127.88042603 161.25067474 -127.07335205 161.25134949 -126.24182129 161.25204468 C-109.59623982 161.2299107 -94.42310077 159.64170985 -78.61328125 154.23046875 C-76.4410819 153.49074681 -74.25340659 152.79190065 -72.04296875 152.17578125 C-57.28307064 147.94392235 -43.27256843 139.30846718 -32 129 C-31.154375 128.28328125 -30.30875 127.5665625 -29.4375 126.828125 C-23.17761303 121.44614901 -18.0230217 115.53630954 -13 109 C-11.98099609 107.72189453 -11.98099609 107.72189453 -10.94140625 106.41796875 C1.08607367 90.77990032 8.34729765 72.77947827 8.375 53 C8.39949219 52.07960938 8.42398437 51.15921875 8.44921875 50.2109375 C8.4874009 41.17449569 5.93967709 33.1717591 -0.2890625 26.46875 C-7.20533906 20.53148976 -14.92448231 19.63979099 -23.73828125 19.71875 C-28.27452496 20.10989916 -31.29798944 21.43576333 -35 24 C-36.051875 24.680625 -37.10375 25.36125 -38.1875 26.0625 C-44.41477974 31.59597956 -46.50171143 41.0040283 -48.421875 48.78515625 C-49 51 -49 51 -50 53 C-56.34705882 52.51176471 -56.34705882 52.51176471 -59.3125 50.1875 C-63.57358482 44.66387153 -63.69357013 39.81432656 -63 33 C-60.40462253 21.40928014 -54.3536254 11.39588985 -45 4 C-31.69886058 -3.86442691 -14.54955174 -6.66755235 0 0 Z " fill="#F8F8F9" transform="translate(477,306)"/>
<path d="M0 0 C4.10490526 0.02672799 8.20964508 0.00642534 12.31457686 -0.00752878 C20.32048292 -0.02752375 28.32571933 -0.00535578 36.33154197 0.03187242 C45.67372754 0.07373049 55.01577441 0.07311937 64.35803609 0.0711821 C81.03073198 0.06918718 97.70311903 0.10562898 114.37570357 0.16391897 C130.52354719 0.22034437 146.67111941 0.24859755 162.81906295 0.24595022 C164.31338038 0.24571048 164.31338038 0.24571048 165.83788605 0.2454659 C167.32972688 0.24522378 167.32972688 0.24522378 168.85170591 0.24497676 C187.29292354 0.24221343 205.73402689 0.2657882 224.17520738 0.30158962 C230.67608072 0.31361726 237.17693293 0.31790325 243.67781615 0.31971884 C251.60003669 0.32245513 259.52206417 0.34042303 267.44420286 0.37705007 C271.48037133 0.3954357 275.51629402 0.40773616 279.55250716 0.40267324 C283.25456718 0.39825473 286.95608588 0.41259539 290.65803318 0.44126734 C292.61472408 0.45182203 294.57149042 0.44314657 296.5281862 0.43353915 C303.88168689 0.51330106 310.08573191 1.58759047 317.04089081 4.00279069 C319.90698871 4.97410041 322.7381277 5.66830739 325.69552779 6.29966116 C349.88341051 12.23494636 372.19343622 26.78536936 388.94552779 44.98716116 C388.61552779 45.97716116 388.28552779 46.96716116 387.94552779 47.98716116 C387.24685592 47.27688772 386.54818404 46.56661428 385.82834029 45.83481741 C384.91826217 44.91571585 384.00818404 43.99661428 383.07052779 43.04966116 C382.16560592 42.13313772 381.26068404 41.21661428 380.32834029 40.27231741 C378.16870525 37.97528489 378.16870525 37.97528489 375.94552779 36.98716116 C375.94552779 36.32716116 375.94552779 35.66716116 375.94552779 34.98716116 C375.17209029 34.64878225 375.17209029 34.64878225 374.38302779 34.30356741 C371.72226798 32.86658655 369.35807452 31.14166681 366.92209029 29.35679007 C340.70850786 10.36359904 309.84170564 3.8081145 277.99337935 3.85776663 C276.50670017 3.85643085 275.02002132 3.85467352 273.53334308 3.85253382 C269.4859955 3.84803799 265.43867299 3.84985244 261.391325 3.85294938 C257.9319773 3.85484381 254.4726349 3.85317662 251.01328737 3.8514995 C240.69699665 3.84653194 230.38072412 3.85118117 220.06443572 3.85838842 C214.20295142 3.86240821 208.34146752 3.86424398 202.47998214 3.86585379 C148.99532678 3.88246871 95.51209857 4.02907837 42.02864242 4.39332724 C38.15828416 4.41961962 34.28791872 4.44461384 30.41754967 4.46925849 C22.40710031 4.52035931 14.39671298 4.57695197 6.38634849 4.63997602 C3.75967323 4.66055468 1.13301128 4.67896445 -1.49369073 4.69626951 C-5.06681829 4.72037642 -8.63985084 4.75029552 -12.21291947 4.78183889 C-13.73909709 4.79047114 -13.73909709 4.79047114 -15.29610658 4.79927778 C-22.58071984 4.87285328 -29.79792843 5.35481384 -37.05447221 5.98716116 C-37.05447221 6.64716116 -37.05447221 7.30716116 -37.05447221 7.98716116 C-40.42544604 9.48537175 -42.2588934 9.98716116 -46.05447221 9.98716116 C-46.05447221 10.64716116 -46.05447221 11.30716116 -46.05447221 11.98716116 C-48.69447221 11.65716116 -51.33447221 11.32716116 -54.05447221 10.98716116 C-54.05447221 12.30716116 -54.05447221 13.62716116 -54.05447221 14.98716116 C-54.68998002 14.73966116 -55.32548783 14.49216116 -55.98025346 14.23716116 C-60.69805203 13.85350283 -64.07959285 15.91654622 -68.24197221 17.98716116 C-69.5135518 18.60530691 -69.5135518 18.60530691 -70.81081986 19.23594046 C-76.98192373 22.29899172 -82.63685894 25.71601377 -88.05447221 29.98716116 C-89.04447221 30.66778616 -90.03447221 31.34841116 -91.05447221 32.04966116 C-93.56770471 34.48435514 -94.13157007 36.65051495 -95.05447221 39.98716116 C-95.71447221 40.97716116 -96.37447221 41.96716116 -97.05447221 42.98716116 C-97.71447221 42.98716116 -98.37447221 42.98716116 -99.05447221 42.98716116 C-99.15759721 43.62653616 -99.26072221 44.26591116 -99.36697221 44.92466116 C-99.59384721 45.60528616 -99.82072221 46.28591116 -100.05447221 46.98716116 C-101.04447221 47.31716116 -102.03447221 47.64716116 -103.05447221 47.98716116 C-103.38447221 48.64716116 -103.71447221 49.30716116 -104.05447221 49.98716116 C-104.71447221 49.98716116 -105.37447221 49.98716116 -106.05447221 49.98716116 C-106.38447221 50.97716116 -106.71447221 51.96716116 -107.05447221 52.98716116 C-107.71447221 52.98716116 -108.37447221 52.98716116 -109.05447221 52.98716116 C-109.45665971 53.88434866 -109.45665971 53.88434866 -109.86697221 54.79966116 C-111.06859571 57.01317814 -112.25182091 58.2538426 -114.05447221 59.98716116 C-116.20333206 62.59183977 -118.18032681 65.17594306 -120.05447221 67.98716116 C-120.71447221 67.32716116 -121.37447221 66.66716116 -122.05447221 65.98716116 C-123.37447221 68.62716116 -124.69447221 71.26716116 -126.05447221 73.98716116 C-126.71447221 73.98716116 -127.37447221 73.98716116 -128.05447221 73.98716116 C-128.71447221 76.29716116 -129.37447221 78.60716116 -130.05447221 80.98716116 C-130.71447221 80.98716116 -131.37447221 80.98716116 -132.05447221 80.98716116 C-132.05447221 82.30716116 -132.05447221 83.62716116 -132.05447221 84.98716116 C-132.71447221 84.98716116 -133.37447221 84.98716116 -134.05447221 84.98716116 C-133.53791246 79.36734738 -131.39605847 75.25460457 -128.67947221 70.42466116 C-128.23611527 69.63253225 -127.79275834 68.84040335 -127.33596635 68.02427053 C-123.02679656 60.55997082 -117.86079908 54.31511681 -112.05447221 47.98716116 C-111.29263627 47.09512991 -110.53080033 46.20309866 -109.74587846 45.28403616 C-101.82341775 36.07647041 -92.58777736 29.10410981 -82.39040971 22.61606741 C-79.96104089 21.19851794 -79.96104089 21.19851794 -79.05447221 18.98716116 C-77.06738008 18.28295286 -75.06356483 17.62590312 -73.05447221 16.98716116 C-71.03807958 16.16196736 -69.04556253 15.29007462 -67.05027473 14.4151938 C-63.6727995 12.95356228 -60.2699601 11.5563985 -56.8661871 10.15729904 C-55.09802187 9.42145021 -53.33583304 8.67089706 -51.58290434 7.89945507 C-34.55905022 0.4624087 -18.23799007 -0.15869209 0 0 Z " fill="#5A5858" transform="translate(153.05447220802307,8.01283884048462)"/>
<path d="M0 0 C1.34622882 4.03868647 0.23522096 5.82804686 -1.1875 9.8125 C-1.65724559 11.16326564 -2.12464112 12.51485054 -2.58984375 13.8671875 C-2.9453833 14.89730957 -2.9453833 14.89730957 -3.30810547 15.94824219 C-4.36788006 19.09091885 -5.31836136 22.25411484 -6.25 25.4375 C-6.72179687 27.04431641 -6.72179687 27.04431641 -7.203125 28.68359375 C-9.15334707 36.79995913 -9.14011912 44.76677215 -9.12025452 53.07250977 C-9.12110894 54.38199837 -9.12196337 55.69148697 -9.12284368 57.04065704 C-9.12507168 60.65969546 -9.12109063 64.27870408 -9.11606562 67.8977387 C-9.11173691 71.8062917 -9.11320926 75.7148431 -9.1139679 79.62339783 C-9.1144916 86.3900492 -9.11136086 93.1566909 -9.10573006 99.92333984 C-9.09759423 109.70671208 -9.0949977 119.49007965 -9.09374207 129.2734549 C-9.09155482 145.14731243 -9.08490361 161.0211648 -9.07543945 176.89501953 C-9.06625687 192.3126625 -9.05918017 207.73030407 -9.05493164 223.14794922 C-9.05466892 224.09869902 -9.05440619 225.04944882 -9.05413551 226.02900922 C-9.05283045 230.79876287 -9.05156675 235.56851652 -9.05032361 240.33827019 C-9.03996119 279.89218373 -9.02235178 319.44609152 -9 359 C-9.33 359 -9.66 359 -10 359 C-11.48528002 349.96199237 -12.29068956 341.2229767 -12.25396729 332.06858826 C-12.25708727 330.84637748 -12.26020725 329.62416671 -12.26342177 328.36491925 C-12.26995721 325.01653991 -12.267689 321.66838918 -12.26144934 318.32002437 C-12.25688553 314.69133385 -12.26392812 311.06266193 -12.26940918 307.43397522 C-12.27826515 300.3408054 -12.27639763 293.24767811 -12.2705839 286.15450668 C-12.2660499 280.3812761 -12.265462 274.60805736 -12.26763153 268.83482552 C-12.267938 268.01017718 -12.26824446 267.18552885 -12.26856022 266.33589118 C-12.26919974 264.66005301 -12.26984817 262.98421484 -12.2705054 261.30837668 C-12.27619823 245.62075094 -12.26966857 229.93314863 -12.25890467 214.24552674 C-12.24998178 200.82667729 -12.25151282 187.40786249 -12.26074219 173.98901367 C-12.27148354 158.36479008 -12.27563679 142.74058702 -12.26951766 127.11636025 C-12.26888065 125.44486845 -12.2682519 123.77337665 -12.26763153 122.10188484 C-12.26732298 121.27973654 -12.26701443 120.45758825 -12.26669653 119.61052636 C-12.26498027 113.85741063 -12.26786168 108.10430807 -12.27259064 102.35119438 C-12.27824313 95.320582 -12.27659289 88.29001418 -12.26602915 81.2594068 C-12.26082868 77.68208733 -12.25861737 74.10484171 -12.26532745 70.52752304 C-12.33951835 27.21339512 -12.33951835 27.21339512 -6 11.8125 C-5.64421875 10.87470703 -5.2884375 9.93691406 -4.921875 8.97070312 C-2.35968861 2.35968861 -2.35968861 2.35968861 0 0 Z " fill="#434142" transform="translate(18,94)"/>
<path d="M0 0 C1.27726943 0.00063635 1.27726943 0.00063635 2.58034229 0.00128555 C24.53273932 0.0124072 46.48512043 0.03257778 68.4375 0.0625 C68.4375 0.7225 68.4375 1.3825 68.4375 2.0625 C64.18804147 3.10237597 60.07822144 3.19239631 55.73046875 3.16015625 C54.64237663 3.15803383 54.64237663 3.15803383 53.53230286 3.15586853 C51.2298255 3.15029931 48.92744765 3.13775261 46.625 3.125 C45.05794412 3.11998102 43.4908867 3.11541881 41.92382812 3.11132812 C38.09501411 3.10033998 34.26627389 3.08309673 30.4375 3.0625 C30.4375 3.7225 30.4375 4.3825 30.4375 5.0625 C29.7775 5.0625 29.1175 5.0625 28.4375 5.0625 C28.4375 4.4025 28.4375 3.7425 28.4375 3.0625 C27.62761627 3.06472061 26.81773254 3.06694122 25.98330688 3.06922913 C18.36096733 3.08924377 10.73864046 3.10448014 3.11628151 3.11431217 C-0.8026987 3.11953678 -4.72165726 3.1266268 -8.640625 3.13793945 C-12.42072386 3.14878329 -16.20080186 3.15478002 -19.98091507 3.15737724 C-21.42504836 3.15922878 -22.86918047 3.16284424 -24.3133049 3.16823006 C-26.33174277 3.1754602 -28.35020153 3.17590823 -30.36865234 3.17602539 C-32.09406754 3.17935631 -32.09406754 3.17935631 -33.8543396 3.18275452 C-36.5625 3.0625 -36.5625 3.0625 -38.5625 2.0625 C-40.85707142 2.15163749 -43.14929474 2.30733407 -45.4375 2.5 C-49.17540539 2.80824063 -52.80994467 3.0625 -56.5625 3.0625 C-58.2785546 3.06448736 -59.99460887 3.06676069 -61.71066284 3.06922913 C-76.1680837 3.08931529 -90.6254986 3.10452735 -105.08292961 3.11431217 C-112.50565027 3.11947114 -119.92836035 3.12651318 -127.35107422 3.13793945 C-133.83423753 3.14791423 -140.31739316 3.15435968 -146.80056393 3.15658849 C-150.22908107 3.15788995 -153.6575762 3.16094056 -157.08608627 3.16823006 C-160.91140809 3.17547791 -164.73668415 3.17648938 -168.56201172 3.17602539 C-169.69364746 3.17962067 -170.8252832 3.18321594 -171.99121094 3.18692017 C-176.95788589 3.1803918 -181.68405037 3.1312303 -186.5625 2.0625 C-186.5625 1.7325 -186.5625 1.4025 -186.5625 1.0625 C-172.18768248 0.87917668 -157.81267693 0.71500231 -143.4375 0.5625 C-141.75943708 0.54468412 -141.75943708 0.54468412 -140.04747391 0.52650833 C-93.36482005 0.03716183 -46.68478872 -0.02394692 0 0 Z " fill="#3C3A3B" transform="translate(353.5625,10.9375)"/>
<path d="M0 0 C39.21980604 -0.0687481 78.4396042 -0.12157035 117.65945852 -0.15319599 C122.29543338 -0.15694786 126.93140813 -0.16083085 131.56738281 -0.16479492 C132.49027642 -0.16558185 133.41317004 -0.16636878 134.36403012 -0.16717956 C149.28444917 -0.18021415 164.20483334 -0.20385722 179.12523174 -0.23145839 C194.44827498 -0.25956685 209.77130002 -0.27618774 225.09436798 -0.28226548 C234.54059603 -0.28637066 243.98672551 -0.29931095 253.4329232 -0.3237494 C259.9208307 -0.33967384 266.40868764 -0.34438526 272.89661324 -0.34050413 C276.63325457 -0.33859296 280.3697243 -0.34140929 284.10633469 -0.35761642 C312.32995331 -0.47401165 312.32995331 -0.47401165 326 3 C327.97881453 3.4183358 329.95792506 3.83527735 331.9375 4.25 C356.05445023 10.56556499 378.19507763 24.7408055 395 43 C394.67 43.99 394.34 44.98 394 46 C393.30132813 45.28972656 392.60265625 44.57945313 391.8828125 43.84765625 C390.97273438 42.92855469 390.06265625 42.00945313 389.125 41.0625 C388.22007812 40.14597656 387.31515625 39.22945312 386.3828125 38.28515625 C384.22317745 35.98812373 384.22317745 35.98812373 382 35 C382 34.34 382 33.68 382 33 C381.2265625 32.66162109 381.2265625 32.66162109 380.4375 32.31640625 C377.77674019 30.87942539 375.41254673 29.15450565 372.9765625 27.36962891 C347.59272087 8.97763101 317.26627604 1.86853093 286.32600403 1.84178162 C285.0956232 1.83684364 283.86524237 1.83190566 282.59757727 1.82681805 C279.21335081 1.81419565 275.82916465 1.80585587 272.44492424 1.79939139 C268.78385832 1.79133102 265.12281268 1.77765298 261.46176147 1.76467896 C255.12897699 1.74299555 248.79619037 1.72482164 242.46338844 1.70907402 C233.30737263 1.68630085 224.15137935 1.65816863 214.99538275 1.62875474 C200.13812648 1.58116975 185.28086095 1.53788113 170.42358398 1.49731445 C155.99649333 1.45791312 141.56941088 1.41647589 127.14233398 1.37231445 C126.25211227 1.36959018 125.36189055 1.36686591 124.44469241 1.36405908 C119.97843198 1.35037884 115.51217168 1.33665872 111.04591143 1.32291877 C74.03062469 1.20909696 37.01532041 1.10225621 0 1 C0 0.67 0 0.34 0 0 Z " fill="#999798" transform="translate(147,10)"/>
<path d="M0 0 C0.495 1.485 0.495 1.485 1 3 C1.825 3.33 2.65 3.66 3.5 4 C4.325 4.33 5.15 4.66 6 5 C6.495 6.485 6.495 6.485 7 8 C0.90816002 11.32143034 -5.32945192 13.9414785 -11.8125 16.375 C-18.62932014 18.9436671 -24.85970389 21.91945521 -31.21875 25.484375 C-34.7647891 27.41676709 -38.12807998 28.85276444 -42 30 C-42.99 29.67 -43.98 29.34 -45 29 C-41.27009646 24.24115756 -41.27009646 24.24115756 -39.25 22.4375 C-37.56254752 20.81442446 -37.56254752 20.81442446 -38 17 C-37.34 17 -36.68 17 -36 17 C-35.814375 16.4225 -35.62875 15.845 -35.4375 15.25 C-31.98608205 9.8477806 -23.39944576 6.8822989 -17.44140625 5.3359375 C-10.51558385 3.82813872 -10.51558385 3.82813872 -7 5 C-6.67 4.01 -6.34 3.02 -6 2 C-2.9375 0.8125 -2.9375 0.8125 0 0 Z " fill="#1F2327" transform="translate(199,258)"/>
<path d="M0 0 C0 0.33 0 0.66 0 1 C-12.87 1.99 -12.87 1.99 -26 3 C-26 3.66 -26 4.32 -26 5 C-29.37097383 6.49821059 -31.20442119 7 -35 7 C-35 7.66 -35 8.32 -35 9 C-37.64 8.67 -40.28 8.34 -43 8 C-43 9.32 -43 10.64 -43 12 C-43.63550781 11.7525 -44.27101563 11.505 -44.92578125 11.25 C-49.64357982 10.86634167 -53.02512064 12.92938506 -57.1875 15 C-58.03521973 15.41209717 -58.88293945 15.82419434 -59.75634766 16.2487793 C-65.92745152 19.31183056 -71.58238673 22.72885261 -77 27 C-77.99 27.680625 -78.98 28.36125 -80 29.0625 C-82.5132325 31.49719398 -83.07709786 33.66335379 -84 37 C-84.66 37.99 -85.32 38.98 -86 40 C-86.66 40 -87.32 40 -88 40 C-88.103125 40.639375 -88.20625 41.27875 -88.3125 41.9375 C-88.539375 42.618125 -88.76625 43.29875 -89 44 C-89.99 44.33 -90.98 44.66 -92 45 C-92.33 45.66 -92.66 46.32 -93 47 C-93.66 47 -94.32 47 -95 47 C-95.33 47.99 -95.66 48.98 -96 50 C-96.66 50 -97.32 50 -98 50 C-98.4021875 50.8971875 -98.4021875 50.8971875 -98.8125 51.8125 C-100.0141235 54.02601698 -101.1973487 55.26668144 -103 57 C-105.14885985 59.60467861 -107.1258546 62.1887819 -109 65 C-109.66 64.34 -110.32 63.68 -111 63 C-112.32 65.64 -113.64 68.28 -115 71 C-115.66 71 -116.32 71 -117 71 C-117.66 73.31 -118.32 75.62 -119 78 C-119.66 78 -120.32 78 -121 78 C-121 79.32 -121 80.64 -121 82 C-121.66 82 -122.32 82 -123 82 C-122.48344025 76.38018622 -120.34158626 72.26744342 -117.625 67.4375 C-117.18164307 66.64537109 -116.73828613 65.85324219 -116.28149414 65.03710938 C-111.97232435 57.57280966 -106.80632687 51.32795565 -101 45 C-100.23816406 44.10796875 -99.47632812 43.2159375 -98.69140625 42.296875 C-90.76894554 33.08930926 -81.53330515 26.11694865 -71.3359375 19.62890625 C-68.90656868 18.21135678 -68.90656868 18.21135678 -68 16 C-66.01280817 15.29607311 -64.00876759 14.6397634 -62 14 C-58.93699849 12.75839817 -55.90992998 11.43349814 -52.875 10.125 C-35.0971899 2.59194339 -19.27342378 -0.42000197 0 0 Z " fill="#3A3A3B" transform="translate(142,11)"/>
<path d="M0 0 C0.66 0.33 1.32 0.66 2 1 C-0.57784846 3.64752004 -2.91648098 5.94432065 -6 8 C-7.5663494 9.7662221 -9.0273218 11.59672339 -10.5 13.44140625 C-12 15 -12 15 -15 16 C-15.66 16.66 -16.32 17.32 -17 18 C-17.99 18 -18.98 18 -20 18 C-21.33568021 18.32380126 -22.66923011 18.65657551 -24 19 C-24.66 19 -25.32 19 -26 19 C-28.36272281 20.29718115 -30.68346286 21.62499305 -33 23 C-39.57258065 26.85752688 -39.57258065 26.85752688 -43 28 C-43.66 28.99 -44.32 29.98 -45 31 C-46.6476038 31.71247732 -48.31763529 32.37400383 -50 33 C-52.78307606 34.33542672 -52.78307606 34.33542672 -55 36 C-55 36.99 -55 37.98 -55 39 C-55.375 41.625 -55.375 41.625 -56 44 C-56.99 44.495 -56.99 44.495 -58 45 C-59.01505955 41.2178603 -59.50716677 37.90207906 -59 34 C-56.31974715 30.39640646 -52.79253042 28.33135919 -49 26 C-47.89785156 25.28199219 -46.79570312 24.56398438 -45.66015625 23.82421875 C-36.60817432 18.05738165 -27.01131752 13.55475916 -17.28173828 9.06542969 C-13.78486827 7.43260915 -10.32643739 5.72639695 -6.875 4 C-5.75867188 3.443125 -4.64234375 2.88625 -3.4921875 2.3125 C-1.12339941 1.22211689 -1.12339941 1.22211689 0 0 Z " fill="#E2E2E3" transform="translate(196,318)"/>
<path d="M0 0 C1.34622882 4.03868647 0.23522096 5.82804686 -1.1875 9.8125 C-1.65724559 11.16326564 -2.12464112 12.51485054 -2.58984375 13.8671875 C-2.9453833 14.89730957 -2.9453833 14.89730957 -3.30810547 15.94824219 C-4.36788006 19.09091885 -5.31836136 22.25411484 -6.25 25.4375 C-6.72179687 27.04431641 -6.72179687 27.04431641 -7.203125 28.68359375 C-9.0880487 36.5282027 -9.16445807 44.2627569 -9.20532227 52.29101562 C-9.21522186 53.50162659 -9.22512146 54.71223755 -9.23532104 55.95953369 C-9.2613717 59.25646327 -9.28328959 62.55338834 -9.30332303 65.85035896 C-9.32530349 69.30435823 -9.35263275 72.75831522 -9.37937927 76.21228027 C-9.42914408 82.742695 -9.47414252 89.2731334 -9.51740164 95.80359411 C-9.56691325 103.24260192 -9.6217794 110.68156728 -9.67708123 118.12053394 C-9.79065215 133.41364999 -9.89754463 148.7068052 -10 164 C-10.33 164 -10.66 164 -11 164 C-11.04680562 146.83167034 -11.0820307 129.66336071 -11.10362434 112.49498177 C-11.11391896 104.52267443 -11.12794446 96.55040683 -11.15087891 88.578125 C-11.1708685 81.62617238 -11.18372961 74.67424855 -11.18817699 67.72226799 C-11.19077497 64.04426181 -11.1968432 60.36633798 -11.21146011 56.68835831 C-11.22767883 52.57361511 -11.22797613 48.45901337 -11.22705078 44.34423828 C-11.23424133 43.13654282 -11.24143188 41.92884735 -11.24884033 40.68455505 C-11.22798075 32.08960623 -10.33774424 24.04057749 -7.34375 15.9375 C-7.04339844 15.12152344 -6.74304688 14.30554688 -6.43359375 13.46484375 C-6.12550781 12.65144531 -5.81742188 11.83804688 -5.5 11 C-5.19191406 10.15566406 -4.88382813 9.31132813 -4.56640625 8.44140625 C-2.2631537 2.2631537 -2.2631537 2.2631537 0 0 Z " fill="#565455" transform="translate(18,94)"/>
<path d="M0 0 C0.79019531 0.34289062 1.58039063 0.68578125 2.39453125 1.0390625 C5.28681318 2.27416907 8.22810481 3.31118846 11.1875 4.375 C29.04186009 11.28703882 45.0182241 23.08770984 57.9375 37.125 C57.6075 38.115 57.2775 39.105 56.9375 40.125 C56.23882813 39.41472656 55.54015625 38.70445313 54.8203125 37.97265625 C53.91023437 37.05355469 53.00015625 36.13445313 52.0625 35.1875 C51.15757812 34.27097656 50.25265625 33.35445312 49.3203125 32.41015625 C47.16067745 30.11312373 47.16067745 30.11312373 44.9375 29.125 C44.9375 28.465 44.9375 27.805 44.9375 27.125 C44.1640625 26.78662109 44.1640625 26.78662109 43.375 26.44140625 C40.71424019 25.00442539 38.35004673 23.27950565 35.9140625 21.49462891 C14.44001714 5.93549476 -11.70945706 -2.25585118 -38.0625 -3.875 C-28.84863721 -9.81129468 -9.20640397 -3.66771255 0 0 Z " fill="#9B9B9B" transform="translate(484.0625,15.875)"/>
<path d="M0 0 C0 0.33 0 0.66 0 1 C-12.87 1.99 -12.87 1.99 -26 3 C-26 3.66 -26 4.32 -26 5 C-29.37097383 6.49821059 -31.20442119 7 -35 7 C-35 7.66 -35 8.32 -35 9 C-37.64 8.67 -40.28 8.34 -43 8 C-43 9.32 -43 10.64 -43 12 C-43.63550781 11.7525 -44.27101562 11.505 -44.92578125 11.25 C-49.643198 10.86637272 -53.02569249 12.92885048 -57.1875 15 C-58.03957031 15.41572266 -58.89164063 15.83144531 -59.76953125 16.25976562 C-65.93939812 19.33054799 -71.61787789 22.67409639 -77 27 C-78.00289062 27.80308594 -79.00578125 28.60617188 -80.0390625 29.43359375 C-82.7109788 31.60156634 -85.36332338 33.7894023 -88 36 C-88.66 35.67 -89.32 35.34 -90 35 C-85.40807093 28.7243636 -79.52052694 24.93198835 -73.0546875 20.73828125 C-70.01568595 18.86127782 -70.01568595 18.86127782 -68 16 C-66.01280817 15.29607311 -64.00876759 14.6397634 -62 14 C-58.93699849 12.75839817 -55.90992998 11.43349814 -52.875 10.125 C-35.0971899 2.59194339 -19.27342378 -0.42000197 0 0 Z " fill="#8E8D8E" transform="translate(142,11)"/>
<path d="M0 0 C0 0.66 0 1.32 0 2 C0.66 2 1.32 2 2 2 C1.625 4.4375 1.625 4.4375 1 7 C0.01 7.495 0.01 7.495 -1 8 C-1 9.32 -1 10.64 -1 12 C-6.51642105 15.23068178 -11.87871348 18.10029039 -18 20 C-18.99 19.67 -19.98 19.34 -21 19 C-17.27009646 14.24115756 -17.27009646 14.24115756 -15.25 12.4375 C-13.56254752 10.81442446 -13.56254752 10.81442446 -14 7 C-13.34 7 -12.68 7 -12 7 C-11.731875 6.38125 -11.46375 5.7625 -11.1875 5.125 C-10 3 -10 3 -7 1 C-4.605208 0.41590439 -2.46475374 0 0 0 Z " fill="#191F24" transform="translate(175,268)"/>
<path d="M0 0 C3.65097999 0.59091006 6.95316109 1.68093498 10.41357422 2.96777344 C32.38711054 10.9663204 55.81879681 12.86330113 79 14 C79 14.33 79 14.66 79 15 C77.97845825 15.03758423 77.97845825 15.03758423 76.9362793 15.07592773 C73.85316245 15.19190952 70.77034954 15.31462616 67.6875 15.4375 C66.61564453 15.47681641 65.54378906 15.51613281 64.43945312 15.55664062 C62.89741211 15.61948242 62.89741211 15.61948242 61.32421875 15.68359375 C60.37635498 15.72025146 59.42849121 15.75690918 58.4519043 15.79467773 C55.863829 15.91430187 55.863829 15.91430187 53 17 C50.8125 16.5625 50.8125 16.5625 49 16 C49 15.67 49 15.34 49 15 C47.95199219 14.86722656 46.90398437 14.73445313 45.82421875 14.59765625 C44.44529222 14.41942765 43.06638707 14.24103359 41.6875 14.0625 C40.65206055 13.93198242 40.65206055 13.93198242 39.59570312 13.79882812 C36.59857712 13.40789865 33.87549881 12.9584996 31 12 C27.67942171 11.26844402 24.33955927 10.63859911 21 10 C19.948125 9.79375 18.89625 9.5875 17.8125 9.375 C14.51862566 8.93581676 11.31900516 8.9336199 8 9 C7.690625 7.8553125 7.690625 7.8553125 7.375 6.6875 C5.57929296 3.17770897 3.56863688 2.47400219 0 1 C0 0.67 0 0.34 0 0 Z " fill="#0E0D11" transform="translate(250,495)"/>
<path d="M0 0 C0 0.99 0 1.98 0 3 C-0.639375 3.474375 -1.27875 3.94875 -1.9375 4.4375 C-4.16927988 5.78910192 -4.16927988 5.78910192 -4.5 8 C-5.18781804 10.75127217 -6.74866554 11.40227877 -9 13 C-9 13.66 -9 14.32 -9 15 C-10.375 16.625 -10.375 16.625 -12 18 C-12.66 18 -13.32 18 -14 18 C-14.33 18.99 -14.66 19.98 -15 21 C-15.99 21 -16.98 21 -18 21 C-17.67 21.66 -17.34 22.32 -17 23 C-18.85230389 25.77845583 -20.4299869 27.88351863 -23 30 C-25.0625 29.75 -25.0625 29.75 -27 29 C-30.18490007 28.7226499 -30.18490007 28.7226499 -33 31 C-31.66468588 26.82175903 -30.13858923 24.95618043 -26.625 22.375 C-22.50935167 19.22423594 -18.61883924 15.94823035 -14.8125 12.4375 C-14.30493164 11.97029541 -13.79736328 11.50309082 -13.27441406 11.02172852 C-9.83861524 7.83414543 -6.51707397 4.556693 -3.3046875 1.14453125 C-2 0 -2 0 0 0 Z " fill="#17171A" transform="translate(477,439)"/>
<path d="M0 0 C9.38909526 4.11522047 14.91883287 17.50940156 20 26 C20.74636719 27.24716797 20.74636719 27.24716797 21.5078125 28.51953125 C29.87129888 43.8895145 36.11314257 64.4783114 35 82 C33.29024456 78.93631519 32.52575059 76.18636247 31.921875 72.73828125 C31.73391357 71.71009277 31.54595215 70.6819043 31.35229492 69.62255859 C31.1535376 68.53023926 30.95478027 67.43791992 30.75 66.3125 C26.39499923 43.68207856 17.89112223 22.43388593 2.5 4.875 C0 2 0 2 0 0 Z " fill="#716E6F" transform="translate(543,57)"/>
<path d="M0 0 C0 0.66 0 1.32 0 2 C-4.47058824 6 -4.47058824 6 -7 6 C-7 6.66 -7 7.32 -7 8 C-9.33366933 10.01178391 -11.04785514 11.01595171 -14 12 C-13.67 12.66 -13.34 13.32 -13 14 C-14.66666667 14.66666667 -16.33333333 15.33333333 -18 16 C-18.886875 16.391875 -19.77375 16.78375 -20.6875 17.1875 C-21.450625 17.455625 -22.21375 17.72375 -23 18 C-23.66 17.67 -24.32 17.34 -25 17 C-26.32 17 -27.64 17 -29 17 C-29 17.66 -29 18.32 -29 19 C-30.98 19.33 -32.96 19.66 -35 20 C-35 20.99 -35 21.98 -35 23 C-35.99 23.33 -36.98 23.66 -38 24 C-38.66 24.66 -39.32 25.32 -40 26 C-38.3658523 19.22995953 -38.3658523 19.22995953 -36.39624023 17.99194336 C-35.70731689 17.69425049 -35.01839355 17.39655762 -34.30859375 17.08984375 C-33.53580078 16.74429443 -32.76300781 16.39874512 -31.96679688 16.04272461 C-31.13212891 15.67800049 -30.29746094 15.31327637 -29.4375 14.9375 C-21.88388327 11.52561104 -14.88867177 7.69206212 -7.98999023 3.09936523 C-3.28395743 0 -3.28395743 0 0 0 Z " fill="#19191B" transform="translate(442,470)"/>
<path d="M0 0 C0.66 0.33 1.32 0.66 2 1 C0.66596096 10.09122902 -5.67838876 17.83722129 -11.125 25 C-11.53226318 25.53947266 -11.93952637 26.07894531 -12.35913086 26.63476562 C-14.9282055 29.92831828 -17.64639188 32.51761392 -21 35 C-23.125 30.375 -23.125 30.375 -22 27 C-21.0925 27.103125 -20.185 27.20625 -19.25 27.3125 C-15.80271869 27.33951208 -15.80271869 27.33951208 -13.625 24.5 C-13.08875 23.675 -12.5525 22.85 -12 22 C-12.66 22 -13.32 22 -14 22 C-13.67 21.34 -13.34 20.68 -13 20 C-12.34 20.33 -11.68 20.66 -11 21 C-11 18.36 -11 15.72 -11 13 C-10.01 13.99 -9.02 14.98 -8 16 C-8.33 14.02 -8.66 12.04 -9 10 C-8.51789063 9.69707031 -8.03578125 9.39414062 -7.5390625 9.08203125 C-3.63056363 6.48965955 -1.22248629 4.75411335 0 0 Z " fill="#161618" transform="translate(477,389)"/>
<path d="M0 0 C0.99132935 -0.00274933 1.98265869 -0.00549866 3.00402832 -0.0083313 C4.61811836 0.00245453 4.61811836 0.00245453 6.26481628 0.01345825 C7.40671417 0.0131662 8.54861206 0.01287415 9.72511292 0.01257324 C13.49648152 0.01396569 17.26765215 0.02952321 21.03898621 0.04519653 C23.65500785 0.04892696 26.2710309 0.05177379 28.88705444 0.05377197 C35.06700828 0.05998195 41.24689116 0.0763862 47.42681378 0.09647095 C54.46427071 0.118845 61.50173107 0.12982716 68.53921473 0.13986182 C83.01183137 0.16075287 97.48439217 0.19591945 111.95695496 0.24050903 C111.95695496 0.57050903 111.95695496 0.90050903 111.95695496 1.24050903 C110.00615524 1.25263931 110.00615524 1.25263931 108.01594543 1.26501465 C95.68933993 1.3428941 83.36283915 1.43073447 71.03637123 1.52803612 C64.70100163 1.57773347 58.36564659 1.62406333 52.03019714 1.66238403 C45.90279024 1.69957549 39.77551379 1.74602167 33.64822006 1.79857254 C31.32419017 1.81693837 29.00013251 1.83211007 26.67605972 1.843853 C13.30224807 1.91377185 0.21295135 2.40400327 -13.04304504 4.24050903 C-8.69459621 1.34154314 -5.23469921 -0.01124533 0 0 Z " fill="#3A3839" transform="translate(127.04304504394531,8.759490966796875)"/>
<path d="M0 0 C0 0.66 0 1.32 0 2 C-4.24945853 3.03987597 -8.35927856 3.12989631 -12.70703125 3.09765625 C-13.79512337 3.09553383 -13.79512337 3.09553383 -14.90519714 3.09336853 C-17.2076745 3.08779931 -19.51005235 3.07525261 -21.8125 3.0625 C-23.37955588 3.05748102 -24.9466133 3.05291881 -26.51367188 3.04882812 C-30.34248589 3.03783998 -34.17122611 3.02059673 -38 3 C-38 3.66 -38 4.32 -38 5 C-38.66 5 -39.32 5 -40 5 C-40 4.01 -40 3.02 -40 2 C-51.55 2 -63.1 2 -75 2 C-75 1.67 -75 1.34 -75 1 C-49.99254289 0.20871801 -25.01978648 -0.14213303 0 0 Z " fill="#3A3839" transform="translate(422,11)"/>
<path d="M0 0 C-0.66 0 -1.32 0 -2 0 C-2 0.66 -2 1.32 -2 2 C-6.9172167 5.65932406 -10.82838717 8 -17 8 C-16.67 8.99 -16.34 9.98 -16 11 C-23.37297297 13.51351351 -23.37297297 13.51351351 -26 14 C-26.33 13.67 -26.66 13.34 -27 13 C-27.61875 13.825 -28.2375 14.65 -28.875 15.5 C-29.926875 16.7375 -29.926875 16.7375 -31 18 C-31.66 18 -32.32 18 -33 18 C-33 18.99 -33 19.98 -33 21 C-34.65 21.66 -36.3 22.32 -38 23 C-37.69164526 19.91113615 -37.35940948 18.36935059 -35.1640625 16.11328125 C-8.6566939 -2.68656017 -8.6566939 -2.68656017 0 0 Z " fill="#414142" transform="translate(98,22)"/>
<path d="M0 0 C0 3 0 3 -1.49609375 4.75390625 C-2.45708984 5.64916016 -2.45708984 5.64916016 -3.4375 6.5625 C-6.0896163 9.00289429 -6.0896163 9.00289429 -8 12 C-8.66 12 -9.32 12 -10 12 C-13.02481703 17.71983447 -13.02481703 17.71983447 -14 24 C-14.66 24.99 -15.32 25.98 -16 27 C-16.66 26.34 -17.32 25.68 -18 25 C-19.32 27.64 -20.64 30.28 -22 33 C-22.66 33 -23.32 33 -24 33 C-24.66 35.31 -25.32 37.62 -26 40 C-26.66 40 -27.32 40 -28 40 C-28 41.32 -28 42.64 -28 44 C-28.66 44 -29.32 44 -30 44 C-29.48345513 38.38034801 -27.34181544 34.26722279 -24.625 29.4375 C-24.18236816 28.64754639 -23.73973633 27.85759277 -23.28369141 27.04370117 C-17.2207733 16.55100641 -9.54473552 7.52092341 0 0 Z " fill="#545152" transform="translate(49,49)"/>
<path d="M0 0 C1.32 0.33 2.64 0.66 4 1 C4 1.66 4 2.32 4 3 C4.7425 3.2475 5.485 3.495 6.25 3.75 C9.85099634 5.38681652 12.22204346 7.44408692 14 11 C13.67 11.66 13.34 12.32 13 13 C14.65 12.67 16.3 12.34 18 12 C18 12.66 18 13.32 18 14 C19.65 14 21.3 14 23 14 C24.125 17.75 24.125 17.75 23 20 C24.65 20 26.3 20 28 20 C28 21.32 28 22.64 28 24 C24.41408372 22.69854167 21.55944289 21.14874258 18.49609375 18.8828125 C17.67302734 18.27566406 16.84996094 17.66851562 16.00195312 17.04296875 C15.15568359 16.41003906 14.30941406 15.77710938 13.4375 15.125 C12.58736328 14.49980469 11.73722656 13.87460937 10.86132812 13.23046875 C2.6717497 7.15412272 2.6717497 7.15412272 0 4 C0 2.68 0 1.36 0 0 Z " fill="#141516" transform="translate(254,428)"/>
<path d="M0 0 C14.19 0 28.38 0 43 0 C40 3 40 3 37.17158508 3.36076355 C35.44950081 3.3507708 35.44950081 3.3507708 33.69262695 3.34057617 C32.39150467 3.34034958 31.09038239 3.34012299 29.74983215 3.33988953 C28.3293117 3.32456952 26.90879474 3.30892153 25.48828125 3.29296875 C24.03525734 3.28737276 22.58222776 3.28310267 21.12919617 3.28010559 C17.30679671 3.26865695 13.4847398 3.23918999 9.66247559 3.20599365 C5.76135899 3.17529295 1.86018698 3.16160028 -2.04101562 3.14648438 C-9.6941665 3.11431998 -17.34703523 3.06312383 -25 3 C-25 2.67 -25 2.34 -25 2 C-12.625 1.505 -12.625 1.505 0 1 C0 0.67 0 0.34 0 0 Z " fill="#474546" transform="translate(342,11)"/>
<path d="M0 0 C0 3 0 3 -1.64892578 4.97363281 C-2.4067334 5.70936523 -3.16454102 6.44509766 -3.9453125 7.203125 C-4.77546875 8.01910156 -5.605625 8.83507812 -6.4609375 9.67578125 C-7.34007813 10.52527344 -8.21921875 11.37476563 -9.125 12.25 C-14.67139508 17.654394 -20.07119492 23.02079384 -25 29 C-25.66 28.01 -26.32 27.02 -27 26 C-26.690625 25.443125 -26.38125 24.88625 -26.0625 24.3125 C-24.94238179 21.87459567 -24.43962636 19.63775814 -24 17 C-22.02 17.66 -20.04 18.32 -18 19 C-17.731875 18.360625 -17.46375 17.72125 -17.1875 17.0625 C-16 15 -16 15 -13 14 C-13.33 12.68 -13.66 11.36 -14 10 C-12.68 9.67 -11.36 9.34 -10 9 C-10.33 8.01 -10.66 7.02 -11 6 C-9.8553125 5.87625 -9.8553125 5.87625 -8.6875 5.75 C-5.42379958 4.83919988 -4.86904874 3.71861635 -3 1 C-2.01 0.67 -1.02 0.34 0 0 Z " fill="#17191A" transform="translate(112,312)"/>
<path d="M0 0 C1.32 0 2.64 0 4 0 C6.078125 2.125 6.078125 2.125 8.25 5 C12.19080276 10.05180851 16.36111739 14.58863752 21 19 C20.67 19.66 20.34 20.32 20 21 C17 21 17 21 15 20 C14.01 20.33 13.02 20.66 12 21 C12.33 19.35 12.66 17.7 13 16 C11.02 16.99 11.02 16.99 9 18 C8.34 17.01 7.68 16.02 7 15 C7.33 14.34 7.66 13.68 8 13 C8.66 13 9.32 13 10 13 C7.97117094 10.05819786 5.94180214 8.02882906 3 6 C3.33 5.34 3.66 4.68 4 4 C2.02 4.99 2.02 4.99 0 6 C-1.125 2.25 -1.125 2.25 0 0 Z " fill="#111115" transform="translate(174,439)"/>
<path d="M0 0 C0.99 0.33 1.98 0.66 3 1 C2.66829641 4.53817165 1.57251958 6.80423528 -0.375 9.6875 C-4.9811293 16.79028489 -6.89720111 24.56285879 -6 33 C-5.67 33.99 -5.34 34.98 -5 36 C-5.4375 38.1875 -5.4375 38.1875 -6 40 C-6.66 40 -7.32 40 -8 40 C-10.09307531 30.90187425 -9.71774489 22.51983203 -6 14 C-6 12.68 -6 11.36 -6 10 C-5.34 10 -4.68 10 -4 10 C-4.33 9.01 -4.66 8.02 -5 7 C-4.67 6.34 -4.34 5.68 -4 5 C-3.34 5 -2.68 5 -2 5 C-1.34 3.35 -0.68 1.7 0 0 Z " fill="#121215" transform="translate(82,340)"/>
<path d="M0 0 C-0.99 0.495 -0.99 0.495 -2 1 C-2.6837045 2.32467746 -3.34964186 3.65863633 -4 5 C-6 7 -6 7 -8.375 7.4375 C-11.31699036 8.06792651 -12.6522559 9.18239166 -15 11 C-17.25 11.6875 -17.25 11.6875 -19 12 C-19 12.99 -19 13.98 -19 15 C-20.32 15 -21.64 15 -23 15 C-22.79405891 11.39603088 -22.11862332 10.12166494 -19.5625 7.5 C-13.89676632 3.19950335 -7.32445151 -0.96374362 0 0 Z " fill="#121214" transform="translate(168,314)"/>
<path d="M0 0 C1.34622882 4.03868647 0.23522096 5.82804686 -1.1875 9.8125 C-1.65724559 11.16326564 -2.12464112 12.51485054 -2.58984375 13.8671875 C-2.9453833 14.89730957 -2.9453833 14.89730957 -3.30810547 15.94824219 C-5.96151814 23.81672492 -8.33572158 31.69651976 -9 40 C-9.66 40 -10.32 40 -11 40 C-11.34014764 29.45542317 -9.08856468 20.85683603 -5.5 11 C-5.19118896 10.15002441 -4.88237793 9.30004883 -4.56420898 8.42431641 C-4.26458252 7.62429199 -3.96495605 6.82426758 -3.65625 6 C-3.38619141 5.278125 -3.11613281 4.55625 -2.83789062 3.8125 C-2 2 -2 2 0 0 Z " fill="#484647" transform="translate(18,94)"/>
<path d="M0 0 C7.10071048 5.88344583 10.48150294 15.06097795 12 24 C12.26600671 27.5471011 12.28030351 31.06938759 12.25 34.625 C12.25773437 35.54023438 12.26546875 36.45546875 12.2734375 37.3984375 C12.25918058 42.3313332 11.93564118 46.3759683 10 51 C9.67 51 9.34 51 9 51 C9.01571045 50.20416504 9.0314209 49.40833008 9.04760742 48.58837891 C9.11050425 44.93399343 9.14916375 41.27972239 9.1875 37.625 C9.21263672 36.37332031 9.23777344 35.12164062 9.26367188 33.83203125 C9.33761383 24.41675555 8.38446427 16.26922106 3.375 8.125 C1.72134758 5.40900117 0.63098874 3.12689976 0 0 Z " fill="#101013" transform="translate(405,122)"/>
<path d="M0 0 C0 0.33 0 0.66 0 1 C-12.87 1.99 -12.87 1.99 -26 3 C-26 3.66 -26 4.32 -26 5 C-29.37097383 6.49821059 -31.20442119 7 -35 7 C-35 7.66 -35 8.32 -35 9 C-37.64 8.67 -40.28 8.34 -43 8 C-43 9.32 -43 10.64 -43 12 C-43.99 11.67 -44.98 11.34 -46 11 C-46 9.68 -46 8.36 -46 7 C-30.63776934 1.36287895 -16.31621273 -0.35555912 0 0 Z " fill="#7D7B7E" transform="translate(142,11)"/>
<path d="M0 0 C0.33 0 0.66 0 1 0 C0.25328168 11.69203687 -0.85351587 23.34157478 -2 35 C0.97 34.505 0.97 34.505 4 34 C4 34.66 4 35.32 4 36 C1.36 36.33 -1.28 36.66 -4 37 C-4.02907584 32.6041806 -4.0468244 28.20838601 -4.0625 23.8125 C-4.07087891 22.56662109 -4.07925781 21.32074219 -4.08789062 20.03710938 C-4.09111328 18.83505859 -4.09433594 17.63300781 -4.09765625 16.39453125 C-4.10289307 15.28956299 -4.10812988 14.18459473 -4.11352539 13.04614258 C-4.00807699 10.21672395 -3.77876546 7.72153184 -3 5 C-2.34 4.67 -1.68 4.34 -1 4 C-0.34786708 1.97536745 -0.34786708 1.97536745 0 0 Z " fill="#0A0A0E" transform="translate(133,248)"/>
<path d="M0 0 C0 0.66 0 1.32 0 2 C0.66 2 1.32 2 2 2 C1.8125 4.375 1.8125 4.375 1 7 C-2.94693102 9.3920794 -7.49103157 9.54146084 -12 10 C-12 10.66 -12 11.32 -12 12 C-12.66 11.67 -13.32 11.34 -14 11 C-14 9.68 -14 8.36 -14 7 C-13.34 7 -12.68 7 -12 7 C-11.731875 6.38125 -11.46375 5.7625 -11.1875 5.125 C-10 3 -10 3 -7 1 C-4.605208 0.41590439 -2.46475374 0 0 0 Z " fill="#111315" transform="translate(175,268)"/>
<path d="M0 0 C1.625 1.6875 1.625 1.6875 3 4 C2.1875 6.75 2.1875 6.75 1 9 C0.34 9 -0.32 9 -1 9 C-1.33 9.99 -1.66 10.98 -2 12 C-2.99 12 -3.98 12 -5 12 C-5.0825 12.66 -5.165 13.32 -5.25 14 C-6.24759791 17.99039163 -8.07166683 21.38549643 -10 25 C-11.32 24.01 -12.64 23.02 -14 22 C-13.34 20.68 -12.68 19.36 -12 18 C-12 18.66 -12 19.32 -12 20 C-11.34 20 -10.68 20 -10 20 C-10 18.68 -10 17.36 -10 16 C-9.34 16 -8.68 16 -8 16 C-7.7834375 14.824375 -7.7834375 14.824375 -7.5625 13.625 C-7 11 -7 11 -6 9 C-5.34 9 -4.68 9 -4 9 C-3.896875 8.2575 -3.79375 7.515 -3.6875 6.75 C-2.95746496 3.82985982 -1.93210602 2.26812446 0 0 Z " fill="#3B3839" transform="translate(31,73)"/>
<path d="M0 0 C1.98 0 3.96 0 6 0 C6 1.32 6 2.64 6 4 C6.598125 4.144375 7.19625 4.28875 7.8125 4.4375 C9.56150404 4.8872439 11.28677023 5.42892341 13 6 C13 6.66 13 7.32 13 8 C13.62648438 8.10957031 14.25296875 8.21914063 14.8984375 8.33203125 C15.71570313 8.49058594 16.53296875 8.64914062 17.375 8.8125 C18.18710938 8.96332031 18.99921875 9.11414063 19.8359375 9.26953125 C22 10 22 10 24 13 C26.55183404 14.20450304 26.55183404 14.20450304 29 15 C28.34 15.66 27.68 16.32 27 17 C30.3 17.99 33.6 18.98 37 20 C33.50242203 21.16585932 32.38431934 20.75860292 28.9375 19.6875 C28.05964844 19.42324219 27.18179688 19.15898438 26.27734375 18.88671875 C24 18 24 18 22 16 C22.33 15.67 22.66 15.34 23 15 C22.10861328 14.58041016 22.10861328 14.58041016 21.19921875 14.15234375 C3.83626626 5.75439939 3.83626626 5.75439939 0 0 Z " fill="#111011" transform="translate(66,547)"/>
<path d="M0 0 C0.66 0.33 1.32 0.66 2 1 C-7.24048202 9.83161114 -16.83531674 16.8167026 -28.5 22.0625 C-29.18271973 22.37396973 -29.86543945 22.68543945 -30.56884766 23.00634766 C-33.36025905 24.20306371 -35.41300113 25.07523245 -38.46875 24.68359375 C-38.9740625 24.45800781 -39.479375 24.23242188 -40 24 C-39.00742187 23.59910156 -38.01484375 23.19820312 -36.9921875 22.78515625 C-26.23657941 18.32707324 -16.29070274 13.15500464 -7.23046875 5.73046875 C-5 4 -5 4 -3 4 C-3 3.34 -3 2.68 -3 2 C-2.01 1.34 -1.02 0.68 0 0 Z " fill="#363536" transform="translate(530,540)"/>
<path d="M0 0 C2 1 2 1 2.60546875 2.79296875 C2.79753906 3.58316406 2.98960938 4.37335938 3.1875 5.1875 C5.89661856 14.78630585 11.07769034 23.69656606 16.15234375 32.23046875 C17 34 17 34 17 37 C11.91998304 32.67696941 9.56676108 27.62520569 6.8125 21.625 C6.37486328 20.70460938 5.93722656 19.78421875 5.48632812 18.8359375 C2.56425072 12.59027588 0 6.99442809 0 0 Z " fill="#3D3A3B" transform="translate(15,478)"/>
<path d="M0 0 C-3 2 -3 2 -6.34375 1.390625 C-7.73150014 1.01902406 -9.11679285 0.63816966 -10.5 0.25 C-19.92031298 -2.20433442 -29.31811159 -3.19229032 -39 -4 C-29.4120238 -10.17732795 -9.67191474 -3.35971775 0 0 Z " fill="#7E7C7B" transform="translate(485,16)"/>
<path d="M0 0 C0.33 0 0.66 0 1 0 C1.65078028 7.52012773 -0.63169373 13.11778765 -3.5 20 C-3.92925781 21.06089844 -4.35851562 22.12179687 -4.80078125 23.21484375 C-5.85497091 25.81517825 -6.9215411 28.40965901 -8 31 C-8.66 31 -9.32 31 -10 31 C-7.92028538 23.90563736 -5.66940941 16.88176199 -3.3125 9.875 C-2.83200195 8.44027344 -2.83200195 8.44027344 -2.34179688 6.9765625 C-1.56258967 4.65057084 -0.78197326 2.32506289 0 0 Z " fill="#3B3A3A" transform="translate(573,466)"/>
<path d="M0 0 C0.66 0.99 1.32 1.98 2 3 C1.25 5.9375 1.25 5.9375 0 9 C-0.433125 10.11375 -0.433125 10.11375 -0.875 11.25 C-2 13 -2 13 -3.9375 13.9375 C-6.71944543 15.3706234 -7.56938502 17.28183153 -9 20 C-9.99 19.34 -10.98 18.68 -12 18 C-11.55269531 17.45472656 -11.10539062 16.90945312 -10.64453125 16.34765625 C-6.48262119 11.15636119 -3.03638084 5.91884377 0 0 Z " fill="#2C2D2F" transform="translate(460,199)"/>
<path d="M0 0 C6.4596331 1.32505294 10.38917374 5.59409935 15 10 C14.67 10.66 14.34 11.32 14 12 C13.401875 11.814375 12.80375 11.62875 12.1875 11.4375 C9.83591238 10.77906313 9.83591238 10.77906313 7 12 C6.4465236 9.92446352 6 8.15634036 6 6 C5.34 5.67 4.68 5.34 4 5 C3.67 5.99 3.34 6.98 3 8 C0 2.25 0 2.25 0 0 Z " fill="#121115" transform="translate(195,461)"/>
<path d="M0 0 C5.02474293 0.61830949 9.24720494 2.12976776 13.875 4.0625 C14.90753906 4.48499023 14.90753906 4.48499023 15.9609375 4.91601562 C17.64289909 5.60515266 19.32177697 6.30180798 21 7 C20.67 7.66 20.34 8.32 20 9 C19.39671875 8.79503906 18.7934375 8.59007812 18.171875 8.37890625 C17.37265625 8.10949219 16.5734375 7.84007812 15.75 7.5625 C14.96109375 7.29566406 14.1721875 7.02882813 13.359375 6.75390625 C9.04590411 5.1403235 9.04590411 5.1403235 4.75 5.9375 C4.1725 6.288125 3.595 6.63875 3 7 C2.34 6.01 1.68 5.02 1 4 C0.34 3.67 -0.32 3.34 -1 3 C-0.67 2.01 -0.34 1.02 0 0 Z " fill="#403E3E" transform="translate(480,18)"/>
<path d="M0 0 C0.76978683 0.0028299 1.53957367 0.00565979 2.33268738 0.00857544 C4.777943 0.01972093 7.22282487 0.04481469 9.66796875 0.0703125 C11.3313749 0.0803496 12.99478682 0.08947417 14.65820312 0.09765625 C18.72410112 0.11964177 22.78972169 0.15413236 26.85546875 0.1953125 C26.85546875 0.5253125 26.85546875 0.8553125 26.85546875 1.1953125 C26.19240723 1.21513184 25.5293457 1.23495117 24.84619141 1.25537109 C11.09350298 1.68536533 -2.49871924 2.40026954 -16.14453125 4.1953125 C-10.73373706 0.58811637 -6.43232596 -0.0897544 0 0 Z " fill="#312F2F" transform="translate(130.14453125,8.8046875)"/>
<path d="M0 0 C0.33 0.99 0.66 1.98 1 3 C-0.1875 5.34765625 -0.1875 5.34765625 -2 8.0625 C-2.64582031 9.03058594 -3.29164063 9.99867188 -3.95703125 10.99609375 C-4.63121094 11.98738281 -5.30539062 12.97867188 -6 14 C-6.62261719 14.96035156 -7.24523437 15.92070313 -7.88671875 16.91015625 C-8.48097656 17.80605469 -9.07523438 18.70195313 -9.6875 19.625 C-10.22761719 20.44226563 -10.76773438 21.25953125 -11.32421875 22.1015625 C-13.19471101 24.22058171 -14.23912626 24.65113142 -17 25 C-16.6596875 24.57332031 -16.319375 24.14664063 -15.96875 23.70703125 C-11.82995904 18.36843121 -8.30560442 12.73556238 -4.83203125 6.953125 C-3.32361372 4.521646 -1.76330799 2.24917304 0 0 Z " fill="#403E3F" transform="translate(558,505)"/>
<path d="M0 0 C-0.89460938 0.38929688 -1.78921875 0.77859375 -2.7109375 1.1796875 C-11.52561824 5.19602456 -17.55992573 9.62507624 -24 17 C-24 14 -24 14 -23 11 C-21.35360035 9.64172029 -19.68704193 8.30745749 -18 7 C-17.67 6.34 -17.34 5.68 -17 5 C-15.67532254 4.3162955 -14.34136367 3.65035814 -13 3 C-12.34 2.34 -11.68 1.68 -11 1 C-9.34385343 0.61781233 -7.67542976 0.28604898 -6 0 C-3 -1 -3 -1 0 0 Z " fill="#131315" transform="translate(446,304)"/>
<path d="M0 0 C0 0.66 0 1.32 0 2 C-6 5 -6 5 -12 8 C-12 8.66 -12 9.32 -12 10 C-12.66 10 -13.32 10 -14 10 C-14 9.01 -14 8.02 -14 7 C-14.99 6.67 -15.98 6.34 -17 6 C-14.73495035 4.80015203 -12.46410112 3.61505231 -10.1875 2.4375 C-9.54490234 2.09525391 -8.90230469 1.75300781 -8.24023438 1.40039062 C-3.33984375 -1.11328125 -3.33984375 -1.11328125 0 0 Z " fill="#313034" transform="translate(295,107)"/>
<path d="M0 0 C-0.66 1.32 -1.32 2.64 -2 4 C-3.45823212 4.0270043 -4.91660675 4.04639787 -6.375 4.0625 C-7.18710938 4.07410156 -7.99921875 4.08570313 -8.8359375 4.09765625 C-11 4 -11 4 -13 3 C-13.33 3.66 -13.66 4.32 -14 5 C-14.99 4.67 -15.98 4.34 -17 4 C-17.99 4.33 -18.98 4.66 -20 5 C-20.33 4.01 -20.66 3.02 -21 2 C-13.94546999 0.79556805 -7.16562789 -0.28100502 0 0 Z " fill="#423F40" transform="translate(137,12)"/>
<path d="M0 0 C2.89589652 -0.02706445 5.79153795 -0.04687029 8.6875 -0.0625 C9.91243164 -0.07506836 9.91243164 -0.07506836 11.16210938 -0.08789062 C15.24499084 -0.10442051 19.01651707 -0.03035098 23 1 C22.67 1.66 22.34 2.32 22 3 C15.54978268 4.0696984 9.43970024 4.00136068 2.9375 3.5625 C1.6390918 3.48418945 1.6390918 3.48418945 0.31445312 3.40429688 C-1.79079032 3.2763539 -3.89546828 3.13916029 -6 3 C-6 2.67 -6 2.34 -6 2 C-4.02 1.67 -2.04 1.34 0 1 C0 0.67 0 0.34 0 0 Z " fill="#2E2C2F" transform="translate(315,508)"/>
<path d="M0 0 C0.66 0.33 1.32 0.66 2 1 C2 1.33 2 1.66 2 2 C3.32 1.34 4.64 0.68 6 0 C5.45276317 3.37462715 4.9451 5.08235 3 8 C2.34 8 1.68 8 1 8 C1 7.01 1 6.02 1 5 C-3.13126473 6.92151848 -6.53258866 9.04250209 -10 12 C-8.52278578 8.54798361 -6.56205999 6.35038064 -3.875 3.75 C-3.15054688 3.04359375 -2.42609375 2.3371875 -1.6796875 1.609375 C-1.12539063 1.07828125 -0.57109375 0.5471875 0 0 Z M-1 7 C-0.01 7.495 -0.01 7.495 1 8 C0.67 8.66 0.34 9.32 0 10 C-0.33 9.01 -0.66 8.02 -1 7 Z " fill="#3F4041" transform="translate(53,43)"/>
<path d="M0 0 C8.36284857 0.58345455 17.52280296 3.6102156 24 9 C23.67 9.66 23.34 10.32 23 11 C21.92621094 10.52949219 20.85242188 10.05898438 19.74609375 9.57421875 C18.30990209 8.94529822 16.87370382 8.31639277 15.4375 7.6875 C14.73302734 7.37876953 14.02855469 7.07003906 13.30273438 6.75195312 C8.876966 4.81440476 4.44308665 2.89750744 0 1 C0 0.67 0 0.34 0 0 Z " fill="#A09D9E" transform="translate(482,17)"/>
<path d="M0 0 C-1.98 0.99 -1.98 0.99 -4 2 C-4 2.66 -4 3.32 -4 4 C-5.4562672 4.36256858 -6.91511185 4.71479793 -8.375 5.0625 C-9.59316406 5.35833984 -9.59316406 5.35833984 -10.8359375 5.66015625 C-13 6 -13 6 -15 5 C-14.67 4.01 -14.34 3.02 -14 2 C-11.85546875 1.015625 -11.85546875 1.015625 -9.1875 0.25 C-8.31480469 -0.01296875 -7.44210937 -0.2759375 -6.54296875 -0.546875 C-3.94565881 -1.00968292 -2.46623472 -0.85082224 0 0 Z " fill="#1F1E20" transform="translate(391,497)"/>
<path d="M0 0 C4.92073835 2.09528214 7.04979241 5.70263129 10 10 C10.5053125 10.72574219 11.010625 11.45148438 11.53125 12.19921875 C14.20645317 16.21945462 14.20645317 16.21945462 15 18 C14.67 18.99 14.34 19.98 14 21 C13.49210938 20.21496094 12.98421875 19.42992188 12.4609375 18.62109375 C7.81343903 11.49914388 7.81343903 11.49914388 2.5 4.875 C0 2 0 2 0 0 Z " fill="#918F90" transform="translate(543,57)"/>
<path d="M0 0 C0.66 0 1.32 0 2 0 C2.19393328 4.8483321 1.76729585 8.48357727 0 13 C-0.4640625 14.3921875 -0.4640625 14.3921875 -0.9375 15.8125 C-1.288125 16.534375 -1.63875 17.25625 -2 18 C-2.99 18.33 -3.98 18.66 -5 19 C-4.35561067 16.39546825 -3.7095496 13.7913709 -3.0625 11.1875 C-2.88009766 10.44951172 -2.69769531 9.71152344 -2.50976562 8.95117188 C-1.7577385 5.92939016 -0.98514427 2.95543282 0 0 Z " fill="#202129" transform="translate(506,379)"/>
<path d="M0 0 C0.66 0 1.32 0 2 0 C2.33 1.98 2.66 3.96 3 6 C3.66 5.01 4.32 4.02 5 3 C5.20912548 15.96577947 5.20912548 15.96577947 4 22 C3.34 22.66 2.68 23.32 2 24 C1.93941406 22.9378125 1.87882813 21.875625 1.81640625 20.78125 C1.20729762 10.36284897 1.20729762 10.36284897 0 0 Z " fill="#353333" transform="translate(574,129)"/>
<path d="M0 0 C0.66 0 1.32 0 2 0 C2.1083667 2.7302389 2.18746694 5.45614543 2.25 8.1875 C2.28351562 8.95642578 2.31703125 9.72535156 2.3515625 10.51757812 C2.42243849 14.64610431 2.32932056 16.50155164 -0.015625 20.05078125 C-0.67046875 20.69402344 -1.3253125 21.33726562 -2 22 C-2.25515919 14.47280398 -1.28297723 7.41148455 0 0 Z " fill="#343132" transform="translate(10,121)"/>
<path d="M0 0 C0 3 0 3 -1.49609375 4.75390625 C-2.45708984 5.64916016 -2.45708984 5.64916016 -3.4375 6.5625 C-6.0896163 9.00289429 -6.0896163 9.00289429 -8 12 C-8.66 12 -9.32 12 -10 12 C-10.2475 12.5775 -10.495 13.155 -10.75 13.75 C-12.16683317 16.3002997 -13.87627537 18.01785701 -16 20 C-14.92421078 11.25537052 -6.48149088 5.26621134 0 0 Z " fill="#949394" transform="translate(49,49)"/>
<path d="M0 0 C0.66 0 1.32 0 2 0 C1.98839844 1.04800781 1.97679688 2.09601563 1.96484375 3.17578125 C1.95546345 4.55468572 1.9463635 5.93359211 1.9375 7.3125 C1.92912109 8.00279297 1.92074219 8.69308594 1.91210938 9.40429688 C1.89692094 12.5483025 1.99806673 14.99420019 3 18 C2.5625 20.1875 2.5625 20.1875 2 22 C1.34 22 0.68 22 0 22 C-0.92055082 18.091312 -1.13429682 14.44907765 -1.125 10.4375 C-1.12757812 9.32246094 -1.13015625 8.20742188 -1.1328125 7.05859375 C-1.02206147 4.50806272 -0.7467862 2.42409171 0 0 Z " fill="#040407" transform="translate(74,358)"/>
<path d="M0 0 C0.99 0.495 0.99 0.495 2 1 C2 1.66 2 2.32 2 3 C2.99 3 3.98 3 5 3 C5 3.66 5 4.32 5 5 C6.45833358 6.62514468 6.45833358 6.62514468 8 8 C8 7.34 8 6.68 8 6 C8.66 6 9.32 6 10 6 C10 8.64 10 11.28 10 14 C8 14 8 14 6.30859375 12.4609375 C0.13958982 5.58359283 0.13958982 5.58359283 0 0 Z " fill="#121112" transform="translate(488,307)"/>
<path d="M0 0 C3.62493334 -0.05787784 7.24974857 -0.0935542 10.875 -0.125 C11.90753906 -0.14175781 12.94007813 -0.15851562 14.00390625 -0.17578125 C14.99003906 -0.18222656 15.97617187 -0.18867188 16.9921875 -0.1953125 C18.35899658 -0.21102295 18.35899658 -0.21102295 19.75341797 -0.22705078 C22 0 22 0 24 2 C23.34 2 22.68 2 22 2 C21.67 2.99 21.34 3.98 21 5 C21 4.01 21 3.02 21 2 C14.07 2 7.14 2 0 2 C0 1.34 0 0.68 0 0 Z " fill="#413F40" transform="translate(424,11)"/>
<path d="M0 0 C2.82613703 3.44024219 5.39131533 6.95122977 7.8125 10.6875 C8.43769531 11.64011719 9.06289063 12.59273437 9.70703125 13.57421875 C10.13371094 14.37472656 10.56039062 15.17523438 11 16 C10.67 16.66 10.34 17.32 10 18 C9.34 18 8.68 18 8 18 C7.8453125 17.0409375 7.8453125 17.0409375 7.6875 16.0625 C7.460625 15.381875 7.23375 14.70125 7 14 C6.01 13.67 5.02 13.34 4 13 C3.9175 12.236875 3.835 11.47375 3.75 10.6875 C2.85384206 7.47626739 1.78388975 6.70625501 -1 5 C-0.67 3.35 -0.34 1.7 0 0 Z " fill="#3D3A3B" transform="translate(550,67)"/>
<path d="M0 0 C4.62 0 9.24 0 14 0 C14 0.66 14 1.32 14 2 C9.22907044 3.23402862 4.57530554 3.11265112 -0.3125 3.0625 C-1.14845703 3.05798828 -1.98441406 3.05347656 -2.84570312 3.04882812 C-4.89716649 3.03710548 -6.94859273 3.01917203 -9 3 C-9 2.67 -9 2.34 -9 2 C-6.03 2 -3.06 2 0 2 C0 1.34 0 0.68 0 0 Z " fill="#423F40" transform="translate(408,11)"/>
<path d="M0 0 C2 2 2 2 3 4.0625 C3.84589942 6.16865601 3.84589942 6.16865601 6 7 C5.67 7.66 5.34 8.32 5 9 C6.65 9.33 8.3 9.66 10 10 C10 10.66 10 11.32 10 12 C8.02 12.99 8.02 12.99 6 14 C4.79719839 12.42825925 3.61318725 10.84212442 2.4375 9.25 C1.77621094 8.36828125 1.11492187 7.4865625 0.43359375 6.578125 C-1 4 -1 4 -0.71484375 1.671875 C-0.47894531 1.12015625 -0.24304688 0.5684375 0 0 Z " fill="#111013" transform="translate(231,400)"/>
<path d="M0 0 C0.99 0.33 1.98 0.66 3 1 C1.75023244 4.65316671 1.32901247 5.78065836 -2 8 C-2.72965366 10.56282742 -2.72965366 10.56282742 -3 13 C-3.99 12.34 -4.98 11.68 -6 11 C-6 7.39426104 -5.18292538 6.58663434 -3 3.8125 C-2.443125 3.09707031 -1.88625 2.38164062 -1.3125 1.64453125 C-0.879375 1.10183594 -0.44625 0.55914062 0 0 Z M-6 13 C-4 14 -4 14 -4 14 Z " fill="#2E2D2E" transform="translate(247,139)"/>
<path d="M0 0 C0.78375 0.495 1.5675 0.99 2.375 1.5 C4.78552327 3.16537965 4.78552327 3.16537965 7 3 C7 3.66 7 4.32 7 5 C7.639375 5.103125 8.27875 5.20625 8.9375 5.3125 C9.618125 5.539375 10.29875 5.76625 11 6 C11.33 6.99 11.66 7.98 12 9 C5.91773487 9.7155606 5.91773487 9.7155606 3.421875 7.76953125 C1.12741029 5.09924904 0 3.57356623 0 0 Z M6 5 C6 5.66 6 6.32 6 7 C6.66 6.67 7.32 6.34 8 6 C7.34 5.67 6.68 5.34 6 5 Z " fill="#19181A" transform="translate(239,414)"/>
<path d="M0 0 C2.6875 0.875 2.6875 0.875 5 2 C5 2.66 5 3.32 5 4 C-2.28571429 8.42857143 -2.28571429 8.42857143 -7 9 C-6 6 -6 6 -3.9375 4.8125 C-3.298125 4.544375 -2.65875 4.27625 -2 4 C-2.33 3.34 -2.66 2.68 -3 2 C-2.01 1.34 -1.02 0.68 0 0 Z " fill="#D8D8DB" transform="translate(158,337)"/>
<path d="M0 0 C4.99923125 1.32332592 8.39786925 4.60768155 11 9 C10.67 9.99 10.34 10.98 10 12 C8.02 9.69 6.04 7.38 4 5 C2.35 5.33 0.7 5.66 -1 6 C-1 3 -1 3 0 0 Z " fill="#1B1B20" transform="translate(471,329)"/>
<path d="M0 0 C3.38981571 2.25987714 3.62574188 3.33531169 5 7 C5.66 7.66 6.32 8.32 7 9 C7 9.99 7 10.98 7 12 C7.66 12.33 8.32 12.66 9 13 C9 13.99 9 14.98 9 16 C6 15 6 15 4.39453125 12.3828125 C3.87246094 11.30773437 3.35039062 10.23265625 2.8125 9.125 C2.28269531 8.05507813 1.75289062 6.98515625 1.20703125 5.8828125 C0 3 0 3 0 0 Z " fill="#141317" transform="translate(216,377)"/>
<path d="M0 0 C0.99 0 1.98 0 3 0 C1.65432077 4.03703769 -0.36652273 4.91101516 -3.875 7.25 C-5.47988281 8.34054687 -5.47988281 8.34054687 -7.1171875 9.453125 C-8.54417969 10.21882813 -8.54417969 10.21882813 -10 11 C-10.99 10.67 -11.98 10.34 -13 10 C-12.34 10 -11.68 10 -11 10 C-11.33 9.01 -11.66 8.02 -12 7 C-10.88625 6.731875 -9.7725 6.46375 -8.625 6.1875 C-4.78159049 5.34190981 -4.78159049 5.34190981 -3 2 C-2.01 2 -1.02 2 0 2 C0 1.34 0 0.68 0 0 Z " fill="#141315" transform="translate(150,339)"/>
<path d="M0 0 C-4.99527374 3.22275725 -10.94159175 7 -17 7 C-17 6.01 -17 5.02 -17 4 C-14.29120665 2.64560332 -11.99066732 2.93498549 -9 3 C-8.67 2.34 -8.34 1.68 -8 1 C-3.6 -1.2 -3.6 -1.2 0 0 Z " fill="#191819" transform="translate(186,324)"/>
<path d="M0 0 C0 0.66 0 1.32 0 2 C-4.47058824 6 -4.47058824 6 -7 6 C-7 6.66 -7 7.32 -7 8 C-9.31 8 -11.62 8 -14 8 C-4.28571429 0 -4.28571429 0 0 0 Z " fill="#141416" transform="translate(442,470)"/>
<path d="M0 0 C1.65 0 3.3 0 5 0 C3.56036361 3.35915158 1.87583411 5.71624938 -1 8 C-3.25 7.75 -3.25 7.75 -5 7 C-4.6875 5.0625 -4.6875 5.0625 -4 3 C-3.01 2.67 -2.02 2.34 -1 2 C-0.67 1.34 -0.34 0.68 0 0 Z " fill="#1A1A1C" transform="translate(455,461)"/>
<path d="M0 0 C4.56030824 3.80475422 8.85089392 7.74969621 13 12 C12.67 12.99 12.34 13.98 12 15 C11.30132813 14.28972656 10.60265625 13.57945313 9.8828125 12.84765625 C8.97273437 11.92855469 8.06265625 11.00945313 7.125 10.0625 C6.22007812 9.14597656 5.31515625 8.22945312 4.3828125 7.28515625 C2.22317745 4.98812373 2.22317745 4.98812373 0 4 C0 2.68 0 1.36 0 0 Z " fill="#858585" transform="translate(529,41)"/>
<path d="M0 0 C0.66 0.33 1.32 0.66 2 1 C-7.22551253 11.74259681 -7.22551253 11.74259681 -13 15 C-11.38989473 10.92623969 -8.46177729 8.23492931 -5.375 5.25 C-4.859375 4.74339844 -4.34375 4.23679688 -3.8125 3.71484375 C-2.54616661 2.47196098 -1.2736856 1.23534724 0 0 Z " fill="#151414" transform="translate(448,218)"/>
<path d="M0 0 C0.66 0 1.32 0 2 0 C1.88544319 1.91731918 1.75793742 3.8338675 1.625 5.75 C1.55539063 6.81734375 1.48578125 7.8846875 1.4140625 8.984375 C1.02366871 11.82762031 0.55149269 13.61137097 -1 16 C-1.66 16.33 -2.32 16.66 -3 17 C-2.36934845 11.2190275 -1.34844868 5.6556294 0 0 Z " fill="#2D2D31" transform="translate(208,210)"/>
<path d="M0 0 C5.06998019 0.65419099 9.41990777 2.8546409 14 5 C13.67 5.99 13.34 6.98 13 8 C10.9375 8.6875 10.9375 8.6875 9 9 C9 8.01 9 7.02 9 6 C6.35261084 4.5393715 5.10551666 4 2 4 C2 3.34 2 2.68 2 2 C1.34 2 0.68 2 0 2 C0 1.34 0 0.68 0 0 Z " fill="#121218" transform="translate(235,488)"/>
<path d="M0 0 C0.33 0.99 0.66 1.98 1 3 C3.00016466 4.20882096 3.00016466 4.20882096 5 5 C-0.67276511 5.29341888 -3.99067246 5.00559652 -9 2 C-9 1.67 -9 1.34 -9 1 C-3.375 -1.125 -3.375 -1.125 0 0 Z " fill="#181819" transform="translate(317,460)"/>
<path d="M0 0 C5.1474434 4.26502453 7.93986459 9.66263108 10 16 C9.67 16.99 9.34 17.98 9 19 C8.59974609 18.18015625 8.59974609 18.18015625 8.19140625 17.34375 C6.35006317 13.72143575 4.32994513 10.19853314 2.33984375 6.65625 C1.19337041 4.38335825 0.47437087 2.48312652 0 0 Z " fill="#17161E" transform="translate(405,122)"/>
<path d="M0 0 C0.66 0 1.32 0 2 0 C0.49536375 4.02423424 -1.85054292 5.52065616 -5.4375 7.75 C-6.88962891 8.67039063 -6.88962891 8.67039063 -8.37109375 9.609375 C-11 11 -11 11 -14 11 C-14 10.34 -14 9.68 -14 9 C-13.195625 8.731875 -12.39125 8.46375 -11.5625 8.1875 C-10.716875 7.795625 -9.87125 7.40375 -9 7 C-8.67 6.01 -8.34 5.02 -8 4 C-7.34 4 -6.68 4 -6 4 C-2.25410226 2.90838455 -2.25410226 2.90838455 0 0 Z " fill="#18191A" transform="translate(387,206)"/>
<path d="M0 0 C0.33 0.66 0.66 1.32 1 2 C0.67 2.99 0.34 3.98 0 5 C-0.66 5 -1.32 5 -2 5 C-2.66 7.31 -3.32 9.62 -4 12 C-4.66 12 -5.32 12 -6 12 C-6 13.32 -6 14.64 -6 16 C-6.66 16 -7.32 16 -8 16 C-7.55862804 10.26216456 -5.17947381 5.70482884 -2 1 C-1.34 0.67 -0.68 0.34 0 0 Z " fill="#6C696A" transform="translate(27,77)"/>
<path d="M0 0 C1.32 0.33 2.64 0.66 4 1 C4 1.66 4 2.32 4 3 C4.804375 3.268125 5.60875 3.53625 6.4375 3.8125 C7.283125 4.204375 8.12875 4.59625 9 5 C9.33 5.99 9.66 6.98 10 8 C6.38102827 8.32899743 4.60496861 8.44576634 1.625 6.25 C0 4 0 4 0 0 Z " fill="#101012" transform="translate(254,428)"/>
<path d="M0 0 C1.2065625 0.0309375 1.2065625 0.0309375 2.4375 0.0625 C2.4375 0.7225 2.4375 1.3825 2.4375 2.0625 C1.921875 2.51625 1.40625 2.97 0.875 3.4375 C0.1634375 4.241875 0.1634375 4.241875 -0.5625 5.0625 C-0.3975 5.7225 -0.2325 6.3825 -0.0625 7.0625 C0.1025 7.7225 0.2675 8.3825 0.4375 9.0625 C-1.03125 10.6875 -1.03125 10.6875 -2.5625 12.0625 C-2.75651633 10.25068595 -2.94254375 8.43801468 -3.125 6.625 C-3.22941406 5.61566406 -3.33382812 4.60632813 -3.44140625 3.56640625 C-3.48136719 2.74011719 -3.52132812 1.91382813 -3.5625 1.0625 C-2.5625 0.0625 -2.5625 0.0625 0 0 Z " fill="#E2E3E5" transform="translate(140.5625,350.9375)"/>
<path d="M0 0 C0.66 0.33 1.32 0.66 2 1 C0.37660195 2.70884005 -1.29319053 4.37446717 -3 6 C-3.66 6 -4.32 6 -5 6 C-5 6.66 -5 7.32 -5 8 C-7.31 8.66 -9.62 9.32 -12 10 C-12 9.01 -12 8.02 -12 7 C-9.4453125 5.140625 -9.4453125 5.140625 -6.125 3.25 C-5.03445312 2.61578125 -3.94390625 1.9815625 -2.8203125 1.328125 C-1.88960937 0.88984375 -0.95890625 0.4515625 0 0 Z " fill="#1B1A1D" transform="translate(148,321)"/>
<path d="M0 0 C3.98036219 1.99018109 4.66470578 2.53365995 6.75 6.125 C7.39195312 7.21167969 7.39195312 7.21167969 8.046875 8.3203125 C8.51867187 9.15175781 8.51867187 9.15175781 9 10 C7 10 5 10 3 10 C2.01 6.7 1.02 3.4 0 0 Z " fill="#18171C" transform="translate(166,427)"/>
<path d="M0 0 C0.61875 0.474375 1.2375 0.94875 1.875 1.4375 C3.90705546 3.02417441 3.90705546 3.02417441 6 4 C6.39044206 5.31774196 6.70955086 6.65667272 7 8 C7.65509503 10.00382009 8.31974363 12.00458132 9 14 C8.34 14 7.68 14 7 14 C5.7109375 12.35546875 5.7109375 12.35546875 4.375 10.1875 C3.92898438 9.47980469 3.48296875 8.77210937 3.0234375 8.04296875 C2 6 2 6 2 3 C1.01 2.67 0.02 2.34 -1 2 C-0.67 1.34 -0.34 0.68 0 0 Z " fill="#312F33" transform="translate(400,118)"/>
<path d="M0 0 C0.66 0.33 1.32 0.66 2 1 C1.85433594 1.56332031 1.70867187 2.12664062 1.55859375 2.70703125 C1.18547223 4.23865594 0.84431726 5.77841368 0.53515625 7.32421875 C0.37917969 8.10410156 0.22320312 8.88398438 0.0625 9.6875 C-0.09089844 10.47511719 -0.24429688 11.26273438 -0.40234375 12.07421875 C-0.59957031 12.70972656 -0.79679688 13.34523437 -1 14 C-1.99 14.495 -1.99 14.495 -3 15 C-3.55353075 4.44191344 -3.55353075 4.44191344 0 0 Z " fill="#101010" transform="translate(205,232)"/>
<path d="M0 0 C1.48285242 0.95262034 2.96118201 1.91228405 4.4375 2.875 C5.67306641 3.67550781 5.67306641 3.67550781 6.93359375 4.4921875 C9 6 9 6 10 8 C8.25 8.75 8.25 8.75 6 9 C4.62437146 7.71034824 3.29233607 6.37310707 2 5 C-0.1381966 4.2127322 -0.1381966 4.2127322 -2 4 C-2 3.34 -2 2.68 -2 2 C-1.34 2 -0.68 2 0 2 C0 1.34 0 0.68 0 0 Z " fill="#E4E5E7" transform="translate(264,440)"/>
<path d="M0 0 C0.99 0.33 1.98 0.66 3 1 C3 1.66 3 2.32 3 3 C2.01 3.33 1.02 3.66 0 4 C-0.33 4.99 -0.66 5.98 -1 7 C-5.33333333 10 -5.33333333 10 -8 10 C-8 9.01 -8 8.02 -8 7 C-6.02 6.67 -4.04 6.34 -2 6 C-2 5.34 -2 4.68 -2 4 C-3.32 3.34 -4.64 2.68 -6 2 C-4.02 2 -2.04 2 0 2 C0 1.34 0 0.68 0 0 Z " fill="#18181E" transform="translate(163,329)"/>
<path d="M0 0 C1.485 0.99 1.485 0.99 3 2 C3 2.66 3 3.32 3 4 C3.66 4 4.32 4 5 4 C5 4.66 5 5.32 5 6 C5.66 6 6.32 6 7 6 C8.38938077 7.96147874 9.7260411 9.96166576 11 12 C7.23254152 11.44988438 5.69390636 9.97622408 3.25 7.125 C2.63640625 6.42632813 2.0228125 5.72765625 1.390625 5.0078125 C0 3 0 3 0 0 Z " fill="#343132" transform="translate(38,522)"/>
<path d="M0 0 C0.66 0.66 1.32 1.32 2 2 C1 5 1 5 -1.1796875 6.421875 C-2.06914062 6.86015625 -2.95859375 7.2984375 -3.875 7.75 C-4.75929688 8.19859375 -5.64359375 8.6471875 -6.5546875 9.109375 C-9 10 -9 10 -12 9 C-11.34 8.67 -10.68 8.34 -10 8 C-10 7.01 -10 6.02 -10 5 C-8.6078125 5.061875 -8.6078125 5.061875 -7.1875 5.125 C-3.84190281 5.27136339 -3.84190281 5.27136339 -1 3 C-0.67 2.01 -0.34 1.02 0 0 Z " fill="#111111" transform="translate(426,444)"/>
<path d="M0 0 C0 0.99 0 1.98 0 3 C-1.42578125 4.421875 -1.42578125 4.421875 -3.3125 5.75 C-3.92738281 6.19859375 -4.54226563 6.6471875 -5.17578125 7.109375 C-7 8 -7 8 -10 7 C-9.67 6.01 -9.34 5.02 -9 4 C-8.01 4 -7.02 4 -6 4 C-5.67 3.01 -5.34 2.02 -5 1 C-3.35 0.67 -1.7 0.34 0 0 Z " fill="#111113" transform="translate(439,438)"/>
<path d="M0 0 C-3.22741144 2.85856441 -5.60370982 4.76236269 -10 5 C-10.66 4.34 -11.32 3.68 -12 3 C-8.2391768 -0.7608232 -5.0273023 -0.25136512 0 0 Z " fill="#D6D6D8" transform="translate(151,347)"/>
<path d="M0 0 C0.33 0 0.66 0 1 0 C0.67 4.62 0.34 9.24 0 14 C-0.99 14 -1.98 14 -3 14 C-4.10348268 10.68955197 -3.99444068 8.34493684 -3 5 C-2.34 4.67 -1.68 4.34 -1 4 C-0.34786708 1.97536745 -0.34786708 1.97536745 0 0 Z " fill="#15151A" transform="translate(133,248)"/>
<path d="M0 0 C0 3 0 3 -1.75 5.04296875 C-2.4925 5.75066406 -3.235 6.45835938 -4 7.1875 C-4.7425 7.90292969 -5.485 8.61835938 -6.25 9.35546875 C-6.8275 9.89816406 -7.405 10.44085938 -8 11 C-8.99 10.67 -9.98 10.34 -11 10 C-9.92492371 8.70145279 -8.83956264 7.41141639 -7.75 6.125 C-7.14671875 5.40570313 -6.5434375 4.68640625 -5.921875 3.9453125 C-4.02912366 2.02947882 -2.46342273 1.03550955 0 0 Z " fill="#151517" transform="translate(205,121)"/>
<path d="M0 0 C3.3 1.65 6.6 3.3 10 5 C10 5.99 10 6.98 10 8 C7.03 7.01 4.06 6.02 1 5 C0.67 3.35 0.34 1.7 0 0 Z " fill="#3E3B3C" transform="translate(504,27)"/>
<path d="M0 0 C0.66 0 1.32 0 2 0 C2.33 4.62 2.66 9.24 3 14 C2.34 14 1.68 14 1 14 C-0.38226016 11.23547967 -0.09525387 8.9538637 -0.0625 5.875 C-0.05347656 4.77929688 -0.04445312 3.68359375 -0.03515625 2.5546875 C-0.02355469 1.71164062 -0.01195312 0.86859375 0 0 Z " fill="#0B0A0F" transform="translate(202,321)"/>
<path d="M0 0 C-0.33 0.99 -0.66 1.98 -1 3 C-1.9075 3.103125 -2.815 3.20625 -3.75 3.3125 C-7.01961575 4.00414949 -8.53717737 4.82134921 -11 7 C-11 6.34 -11 5.68 -11 5 C-11.66 4.67 -12.32 4.34 -13 4 C-4.738041 -0.59225513 -4.738041 -0.59225513 0 0 Z " fill="#151617" transform="translate(151,277)"/>
<path d="M0 0 C0.9626424 3.85056958 1.06292469 5.32807835 0 9 C-0.66 9.66 -1.32 10.32 -2 11 C-2.33 10.01 -2.66 9.02 -3 8 C-3.66 7.67 -4.32 7.34 -5 7 C-3.35 4.69 -1.7 2.38 0 0 Z " fill="#2C2B2D" transform="translate(239,149)"/>
<path d="M0 0 C0.66 0.33 1.32 0.66 2 1 C2 1.99 2 2.98 2 4 C0.10614563 4.50744423 -1.79018666 5.00564574 -3.6875 5.5 C-4.74324219 5.7784375 -5.79898437 6.056875 -6.88671875 6.34375 C-9.71142672 6.9391715 -12.12836708 7.12786492 -15 7 C-12.45796189 5.57645866 -10.21445081 4.78329677 -7.375 4 C-3.96285798 3.28091922 -3.96285798 3.28091922 -2 1 C-1.67 1.33 -1.34 1.66 -1 2 C-0.67 1.34 -0.34 0.68 0 0 Z " fill="#171516" transform="translate(487,561)"/>
<path d="M0 0 C0.33 0.66 0.66 1.32 1 2 C-0.36328125 4.78515625 -0.36328125 4.78515625 -2.3125 8.0625 C-2.94800781 9.14660156 -3.58351563 10.23070312 -4.23828125 11.34765625 C-6 14 -6 14 -8 15 C-7.4520917 10.7170548 -5.97567196 8.14864359 -3.4375 4.6875 C-2.79683594 3.80449219 -2.15617188 2.92148437 -1.49609375 2.01171875 C-0.75552734 1.01591797 -0.75552734 1.01591797 0 0 Z " fill="#1C1A1B" transform="translate(556,505)"/>
<path d="M0 0 C0 0.66 0 1.32 0 2 C0.99 1.67 1.98 1.34 3 1 C3 2.32 3 3.64 3 5 C0.75 5.75 0.75 5.75 -2 6 C-4.3125 4.0625 -4.3125 4.0625 -6 2 C-2.25 0 -2.25 0 0 0 Z " fill="#0F0F11" transform="translate(290,450)"/>
<path d="M0 0 C5.13623978 4.95912807 5.13623978 4.95912807 7 8 C6.67 8.99 6.34 9.98 6 11 C1.77202073 8.00518135 1.77202073 8.00518135 0 6 C-0.375 2.6875 -0.375 2.6875 0 0 Z " fill="#E1E0E3" transform="translate(231,406)"/>
<path d="M0 0 C0.66 0 1.32 0 2 0 C3.03544174 1.90881434 4.05290085 3.82739204 5.0625 5.75 C5.91521484 7.35101563 5.91521484 7.35101563 6.78515625 8.984375 C8.01044806 12.02593537 8.25348607 13.04893565 7 16 C6.01585567 14.08588443 5.03786651 12.1686033 4.0625 10.25 C3.51722656 9.18265625 2.97195312 8.1153125 2.41015625 7.015625 C1.28783725 4.61554115 0.49498341 2.58143248 0 0 Z " fill="#100F11" transform="translate(148,395)"/>
<path d="M0 0 C-2.94723051 1.96482034 -5.11977826 2.7561217 -8.5 3.6875 C-9.4590625 3.95949219 -10.418125 4.23148437 -11.40625 4.51171875 C-14 5 -14 5 -17 4 C-10.9978711 1.34521222 -6.65418604 -0.1512315 0 0 Z " fill="#131316" transform="translate(223,293)"/>
<path d="M0 0 C0.99 0.33 1.98 0.66 3 1 C-0.16952847 4.26008643 -3.39937989 7.22237877 -7 10 C-7.66 9.67 -8.32 9.34 -9 9 C-3.29268293 1.86585366 -3.29268293 1.86585366 0 0 Z " fill="#8B8B8B" transform="translate(61,37)"/>
<path d="M0 0 C2.99220268 1.36370299 5.29026529 2.94908083 7.75 5.125 C8.67039062 5.93324219 8.67039062 5.93324219 9.609375 6.7578125 C10.06828125 7.16773438 10.5271875 7.57765625 11 8 C9.234375 8.671875 9.234375 8.671875 7 9 C5.078125 7.890625 5.078125 7.890625 3.25 6.25 C2.63640625 5.71890625 2.0228125 5.1878125 1.390625 4.640625 C0 3 0 3 0 0 Z " fill="#333232" transform="translate(53,538)"/>
<path d="M0 0 C0.66 0.33 1.32 0.66 2 1 C1.47731534 3.76276177 0.89130413 6.3260876 0 9 C-0.99 9 -1.98 9 -3 9 C-3.33 9.66 -3.66 10.32 -4 11 C-4 9.35 -4 7.7 -4 6 C-3.01 5.67 -2.02 5.34 -1 5 C-0.67 3.35 -0.34 1.7 0 0 Z " fill="#16151C" transform="translate(505,392)"/>
<path d="M0 0 C0.33 0.99 0.66 1.98 1 3 C0.01 3.495 0.01 3.495 -1 4 C-1.99 3.67 -2.98 3.34 -4 3 C-4.33 3.66 -4.66 4.32 -5 5 C-5.66 4.67 -6.32 4.34 -7 4 C-7 2.68 -7 1.36 -7 0 C-3.89953913 -1.03348696 -2.94389782 -1.17755913 0 0 Z " fill="#3F3E41" transform="translate(106,19)"/>
<path d="M0 0 C4.51617599 -0.07654536 8.59085217 -0.10228696 13 1 C13 1.33 13 1.66 13 2 C12.09507812 2.09087891 12.09507812 2.09087891 11.171875 2.18359375 C9.97304688 2.30927734 9.97304688 2.30927734 8.75 2.4375 C7.96109375 2.51871094 7.1721875 2.59992187 6.359375 2.68359375 C4.17635361 2.97634993 2.1226818 3.42064419 0 4 C0 2.68 0 1.36 0 0 Z " fill="#3C3B3B" transform="translate(449,12)"/>
<path d="M0 0 C0.66 0.33 1.32 0.66 2 1 C-1.42388092 4.82669043 -4.00724943 6.72278474 -9 8 C-9.66 7.34 -10.32 6.68 -11 6 C-9.21385682 4.96953278 -7.42089982 3.95086764 -5.625 2.9375 C-4.62726563 2.36902344 -3.62953125 1.80054688 -2.6015625 1.21484375 C-1.74304688 0.81394531 -0.88453125 0.41304688 0 0 Z " fill="#DEDDD6" transform="translate(196,318)"/>
<path d="M0 0 C0.66 0 1.32 0 2 0 C1.34 1.98 0.68 3.96 0 6 C-1.98 6.33 -3.96 6.66 -6 7 C-5.34 5.35 -4.68 3.7 -4 2 C-2.68 2 -1.36 2 0 2 C0 1.34 0 0.68 0 0 Z " fill="#1A1B21" transform="translate(138,293)"/>
<path d="M0 0 C0.33 0.66 0.66 1.32 1 2 C-0.423125 2.6496875 -0.423125 2.6496875 -1.875 3.3125 C-5.20041937 4.79302201 -5.20041937 4.79302201 -7 8 C-7.99 8 -8.98 8 -10 8 C-10 7.34 -10 6.68 -10 6 C-9.34 5.67 -8.68 5.34 -8 5 C-8.33 4.34 -8.66 3.68 -9 3 C-6.02588876 1.76078698 -3.14737182 0.69941596 0 0 Z " fill="#323234" transform="translate(279,115)"/>
<path d="M0 0 C3.63 0.33 7.26 0.66 11 1 C11 1.66 11 2.32 11 3 C11.99 3.33 12.98 3.66 14 4 C8.34605369 4.34615998 4.96993194 3.43425238 0 1 C0 0.67 0 0.34 0 0 Z " fill="#2F2F2F" transform="translate(108,568)"/>
<path d="M0 0 C0.99 0.33 1.98 0.66 3 1 C1.02 1.99 1.02 1.99 -1 3 C-1 3.66 -1 4.32 -1 5 C-2.875 7.125 -2.875 7.125 -5 9 C-5.66 9 -6.32 9 -7 9 C-7 9.66 -7 10.32 -7 11 C-7.66 11 -8.32 11 -9 11 C-7.59155282 7.78475695 -5.89655214 5.67816132 -3.375 3.25 C-2.74335937 2.63640625 -2.11171875 2.0228125 -1.4609375 1.390625 C-0.73777344 0.70226562 -0.73777344 0.70226562 0 0 Z " fill="#0A0A0C" transform="translate(106,352)"/>
<path d="M0 0 C-1.2065625 0.6496875 -1.2065625 0.6496875 -2.4375 1.3125 C-5.27846354 2.80474002 -5.27846354 2.80474002 -6 6 C-7.32 5.67 -8.64 5.34 -10 5 C-9.01906046 2.54765115 -8.31296172 1.2190732 -6.125 -0.3125 C-3.64990694 -1.1132654 -2.41712366 -0.86325845 0 0 Z " fill="#151416" transform="translate(183,307)"/>
<path d="M0 0 C1.23593891 3.70781672 0.5678132 4.67510253 -0.9375 8.1875 C-1.31777344 9.08855469 -1.69804687 9.98960938 -2.08984375 10.91796875 C-2.54037109 11.94857422 -2.54037109 11.94857422 -3 13 C-3.33 13 -3.66 13 -4 13 C-4.34837335 8.12277312 -3.45094389 5.21562348 -1 1 C-0.67 0.67 -0.34 0.34 0 0 Z " fill="#676464" transform="translate(18,94)"/>
<path d="M0 0 C0 0.66 0 1.32 0 2 C-4.873261 3.5912689 -8.80790596 4.21192221 -14 4 C-11.72385081 1.72385081 -10.64803179 1.51338589 -7.5625 0.875 C-6.78003906 0.70742188 -5.99757813 0.53984375 -5.19140625 0.3671875 C-3 0 -3 0 0 0 Z " fill="#3C3A3B" transform="translate(489,565)"/>
<path d="M0 0 C1.4540625 0.0309375 1.4540625 0.0309375 2.9375 0.0625 C0.57198058 2.80152249 -1.61107221 3.99420092 -5.0625 5.0625 C-7.875 5.1875 -7.875 5.1875 -10.0625 5.0625 C-7.0625 3.0625 -7.0625 3.0625 -5.0625 3.0625 C-4.7325 2.4025 -4.4025 1.7425 -4.0625 1.0625 C-3.0625 0.0625 -3.0625 0.0625 0 0 Z " fill="#0D0D0F" transform="translate(410.0625,453.9375)"/>
<path d="M0 0 C0.99 0 1.98 0 3 0 C2.67 1.98 2.34 3.96 2 6 C1.34 6 0.68 6 0 6 C-0.33 6.66 -0.66 7.32 -1 8 C-1.99 8.33 -2.98 8.66 -4 9 C-4 8.01 -4 7.02 -4 6 C-3.01 6 -2.02 6 -1 6 C-1.020625 5.195625 -1.04125 4.39125 -1.0625 3.5625 C-1 1 -1 1 0 0 Z " fill="#141415" transform="translate(447,327)"/>
<path d="M0 0 C0.721875 0.309375 1.44375 0.61875 2.1875 0.9375 C4.80307309 1.92560539 7.25118982 2.5287754 10 3 C10 4.65 10 6.3 10 8 C7.36 6.68 4.72 5.36 2 4 C2 3.34 2 2.68 2 2 C1.34 2 0.68 2 0 2 C0 1.34 0 0.68 0 0 Z " fill="#36343A" transform="translate(386,108)"/>
<path d="M0 0 C0.66 0.33 1.32 0.66 2 1 C-0.09910812 5.08773687 -1.97795708 6.84183063 -6 9 C-7.34631825 9.98244845 -8.68441297 10.97676564 -10 12 C-8.52278578 8.54798361 -6.56205999 6.35038064 -3.875 3.75 C-3.15054688 3.04359375 -2.42609375 2.3371875 -1.6796875 1.609375 C-1.12539063 1.07828125 -0.57109375 0.5471875 0 0 Z " fill="#565756" transform="translate(53,43)"/>
<path d="M0 0 C3.34252724 -0.07427838 5.8035914 -0.06546953 9 1 C8.67 2.65 8.34 4.3 8 6 C6.66402348 5.19185349 5.331275 4.37836819 4 3.5625 C3.2575 3.11003906 2.515 2.65757812 1.75 2.19140625 C1.1725 1.79824219 0.595 1.40507812 0 1 C0 0.67 0 0.34 0 0 Z " fill="#1B1A1D" transform="translate(259,436)"/>
<path d="M0 0 C2.1640625 0.36328125 2.1640625 0.36328125 4 1 C2.73427767 2.15147661 1.46222094 3.29599314 0.1875 4.4375 C-0.52019531 5.07558594 -1.22789062 5.71367187 -1.95703125 6.37109375 C-4 8 -4 8 -7 9 C-5.4404735 5.17207132 -3.16368164 2.63640136 0 0 Z " fill="#0C0D0C" transform="translate(160,315)"/>
<path d="M0 0 C-1.38188453 3.21043882 -2.92421903 5.04936365 -5.625 7.25 C-6.57246094 8.03117187 -6.57246094 8.03117187 -7.5390625 8.828125 C-8.02117187 9.21484375 -8.50328125 9.6015625 -9 10 C-7.81442213 5.25768853 -5.66615657 0 0 0 Z " fill="#19191A" transform="translate(430,311)"/>
<path d="M0 0 C-0.66 1.32 -1.32 2.64 -2 4 C-4.9375 3.625 -4.9375 3.625 -8 3 C-8.33 2.34 -8.66 1.68 -9 1 C-6.04335481 -0.4783226 -3.25770263 -0.06032783 0 0 Z " fill="#141416" transform="translate(310,273)"/>
<path d="M0 0 C1.32 0 2.64 0 4 0 C3.6875 2.375 3.6875 2.375 3 5 C2.01 5.66 1.02 6.32 0 7 C-0.38133299 5.0085944 -0.71325582 3.00720923 -1 1 C-0.67 0.67 -0.34 0.34 0 0 Z " fill="#19191B" transform="translate(455,416)"/>
<path d="M0 0 C4.571279 0.54855348 8.67435795 1.41744803 13 3 C12.01 3.66 11.02 4.32 10 5 C7.51953125 4.3203125 7.51953125 4.3203125 4.8125 3.125 C3.91144531 2.73570313 3.01039063 2.34640625 2.08203125 1.9453125 C1.39496094 1.63335938 0.70789063 1.32140625 0 1 C0 0.67 0 0.34 0 0 Z " fill="#949293" transform="translate(482,17)"/>
<path d="M0 0 C0.99 0.33 1.98 0.66 3 1 C3 1.66 3 2.32 3 3 C3.66 3 4.32 3 5 3 C5.33 4.65 5.66 6.3 6 8 C2.83884224 6.63016497 2.0072908 6.0109362 0 3 C0 2.01 0 1.02 0 0 Z " fill="#171516" transform="translate(29,506)"/>
<path d="M0 0 C2.875 -0.125 2.875 -0.125 6 0 C6.66 0.66 7.32 1.32 8 2 C7.67 2.99 7.34 3.98 7 5 C1.25 3.125 1.25 3.125 -1 2 C-0.67 1.34 -0.34 0.68 0 0 Z " fill="#312F33" transform="translate(372,101)"/>
<path d="M0 0 C2.63978826 3.18595135 5.10498388 6.30970546 7 10 C6.67 10.66 6.34 11.32 6 12 C3.37591634 9.62582907 1.61386598 7.15088121 0 4 C0 2.68 0 1.36 0 0 Z " fill="#757374" transform="translate(558,76)"/>
<path d="M0 0 C1 3 1 3 0 6 C-2.5625 7.1875 -2.5625 7.1875 -5 8 C-4.64950425 4.75791433 -4.43778819 3.38472296 -1.9375 1.1875 C-1.298125 0.795625 -0.65875 0.40375 0 0 Z " fill="#3B3A3C" transform="translate(65,37)"/>
<path d="M0 0 C0 3 0 3 -2.375 5.6875 C-5 8 -5 8 -7 8 C-6.44414399 4.1090079 -4.34122117 0 0 0 Z " fill="#0D0C0F" transform="translate(477,439)"/>
<path d="M0 0 C0.66 0 1.32 0 2 0 C1.43628586 3.26954202 0.50037734 4.82575883 -2 7 C-2.99 6.67 -3.98 6.34 -5 6 C-3.38405168 3.95880212 -1.7143618 1.95927063 0 0 Z " fill="#141419" transform="translate(485,427)"/>
<path d="M0 0 C0.66 0 1.32 0 2 0 C2 2.31 2 4.62 2 7 C1.34 7 0.68 7 0 7 C-0.66 7.99 -1.32 8.98 -2 10 C-1.85950482 8.52031676 -1.71245174 7.04125484 -1.5625 5.5625 C-1.48128906 4.73878906 -1.40007812 3.91507812 -1.31640625 3.06640625 C-1 1 -1 1 0 0 Z " fill="#0B0E0F" transform="translate(432,344)"/>
<path d="M0 0 C0.99 0 1.98 0 3 0 C3 0.99 3 1.98 3 3 C2.34 3 1.68 3 1 3 C0.67 3.66 0.34 4.32 0 5 C-2.0625 5.625 -2.0625 5.625 -4 6 C-2.84826645 3.53199953 -1.95216435 1.95216435 0 0 Z " fill="#181818" transform="translate(113,345)"/>
<path d="M0 0 C0.33 0 0.66 0 1 0 C1 2.97 1 5.94 1 9 C0.34 9 -0.32 9 -1 9 C-1.33 9.66 -1.66 10.32 -2 11 C-3.13643966 7.59068103 -2.86747764 6.99664544 -1.5625 3.8125 C-1.13130859 2.73935547 -1.13130859 2.73935547 -0.69140625 1.64453125 C-0.46324219 1.10183594 -0.23507813 0.55914062 0 0 Z " fill="#3A3839" transform="translate(18,97)"/>
<path d="M0 0 C1.32 0.99 2.64 1.98 4 3 C1.03 5.475 1.03 5.475 -2 8 C-2.66 6.68 -3.32 5.36 -4 4 C-2.35 4 -0.7 4 1 4 C0.67 2.68 0.34 1.36 0 0 Z " fill="#101011" transform="translate(444,430)"/>
<path d="M0 0 C0.66 0 1.32 0 2 0 C0.375 6.75 0.375 6.75 -3 9 C-2.5020163 5.26512223 -2.12508244 3.18762365 0 0 Z " fill="#16131D" transform="translate(491,417)"/>
<path d="M0 0 C-2.05233685 2.2477975 -3.00667261 3.0022242 -6 4 C-6 3.01 -6 2.02 -6 1 C-6.66 0.67 -7.32 0.34 -8 0 C-4.71023192 -1.09658936 -3.28696233 -0.79953138 0 0 Z " fill="#2C2B2D" transform="translate(387,256)"/>
<path d="M0 0 C-0.928125 0.4021875 -0.928125 0.4021875 -1.875 0.8125 C-4.2995233 1.95556848 -4.2995233 1.95556848 -6 5 C-7.32 4.67 -8.64 4.34 -10 4 C-10 3.34 -10 2.68 -10 2 C-6.5980513 -0.09350689 -3.94727588 -0.17942163 0 0 Z " fill="#19191B" transform="translate(423,242)"/>
<path d="M0 0 C3.59391114 1.33488128 6.75490696 2.96022723 10 5 C8.375 5.75 8.375 5.75 6 6 C2.75 4.1875 2.75 4.1875 0 2 C0 1.34 0 0.68 0 0 Z " fill="#8C8A8B" transform="translate(506,26)"/>
<path d="M0 0 C-0.33 0.99 -0.66 1.98 -1 3 C-2.65 2.67 -4.3 2.34 -6 2 C-6.33 2.66 -6.66 3.32 -7 4 C-7 2.68 -7 1.36 -7 0 C-3.86650268 -1.04449911 -3.01031744 -0.93423645 0 0 Z " fill="#181818" transform="translate(399,494)"/>
<path d="M0 0 C2.6875 0.875 2.6875 0.875 5 2 C4.67 2.99 4.34 3.98 4 5 C3.01 5 2.02 5 1 5 C1 4.34 1 3.68 1 3 C-0.32 2.67 -1.64 2.34 -3 2 C-2.01 1.34 -1.02 0.68 0 0 Z " fill="#111014" transform="translate(224,482)"/>
<path d="M0 0 C0.33 1.32 0.66 2.64 1 4 C-2 4 -2 4 -4.1875 2 C-4.785625 1.34 -5.38375 0.68 -6 0 C-3.50907189 -1.24546405 -2.58919267 -0.7767578 0 0 Z " fill="#3A3839" transform="translate(440,105)"/>
<path d="M0 0 C1.04973814 4.19895255 0.72795155 6.79405774 0 11 C-0.99 11.33 -1.98 11.66 -3 12 C-2.01 8.04 -1.02 4.08 0 0 Z " fill="#414048" transform="translate(504,386)"/>
<path d="M0 0 C1 3 1 3 0.22265625 4.82421875 C-0.8515625 6.54947917 -1.92578125 8.27473958 -3 10 C-4 8 -4 8 -4 4 C-2 1.75 -2 1.75 0 0 Z " fill="#161618" transform="translate(419,322)"/>
<path d="M0 0 C-1.32338632 0.68620031 -2.65949948 1.34786461 -4 2 C-4.845625 2.4125 -5.69125 2.825 -6.5625 3.25 C-7.7690625 3.62125 -7.7690625 3.62125 -9 4 C-9.99 3.34 -10.98 2.68 -12 2 C-7.82262526 0.40861915 -4.46839215 -0.21278058 0 0 Z " fill="#111113" transform="translate(295,276)"/>
<path d="M0 0 C0.66 1.32 1.32 2.64 2 4 C1.01 4.99 0.02 5.98 -1 7 C-1.99 6.01 -2.98 5.02 -4 4 C-3.34 4 -2.68 4 -2 4 C-1.34 2.68 -0.68 1.36 0 0 Z " fill="#2C2C2C" transform="translate(164,167)"/>
<path d="M0 0 C-0.33 0.99 -0.66 1.98 -1 3 C-1.99 2.67 -2.98 2.34 -4 2 C-4.99 2.33 -5.98 2.66 -7 3 C-7.33 2.01 -7.66 1.02 -8 0 C-4.94736336 -0.98120464 -3.05263664 -0.98120464 0 0 Z " fill="#464649" transform="translate(124,14)"/>
<path d="M0 0 C0.33 0.66 0.66 1.32 1 2 C4.02934491 2.65772428 4.02934491 2.65772428 7 3 C7 3.33 7 3.66 7 4 C4.03 4 1.06 4 -2 4 C-2.33 3.34 -2.66 2.68 -3 2 C-2.01 2 -1.02 2 0 2 C0 1.34 0 0.68 0 0 Z " fill="#1F1D1D" transform="translate(95,561)"/>
<path d="M0 0 C0.33 0.99 0.66 1.98 1 3 C-0.32 4.32 -1.64 5.64 -3 7 C-3.99 6.67 -4.98 6.34 -6 6 C-4.02 4.02 -2.04 2.04 0 0 Z " fill="#2F2D2E" transform="translate(538,532)"/>
<path d="M0 0 C0.66 0 1.32 0 2 0 C2 0.66 2 1.32 2 2 C3.32 2.33 4.64 2.66 6 3 C6 4.32 6 5.64 6 7 C5.34 7 4.68 7 4 7 C0 2.52941176 0 2.52941176 0 0 Z " fill="#151414" transform="translate(35,516)"/>
<path d="M0 0 C-1.625 1.5625 -1.625 1.5625 -4 3 C-7.25 2.6875 -7.25 2.6875 -10 2 C-6.80505194 -1.19494806 -4.22040044 -1.35655728 0 0 Z " fill="#0D0D0D" transform="translate(375,502)"/>
<path d="M0 0 C2.31 0 4.62 0 7 0 C7 0.99 7 1.98 7 3 C5.68 3 4.36 3 3 3 C2.34 3.66 1.68 4.32 1 5 C0.67 3.35 0.34 1.7 0 0 Z " fill="#18181C" transform="translate(257,499)"/>
<path d="M0 0 C1.65 0 3.3 0 5 0 C4.34 1.32 3.68 2.64 3 4 C1.68 3.67 0.36 3.34 -1 3 C-0.67 2.01 -0.34 1.02 0 0 Z " fill="#171717" transform="translate(377,499)"/>
<path d="M0 0 C1.9375 0.3125 1.9375 0.3125 4 1 C4.33 1.99 4.66 2.98 5 4 C3.02 4 1.04 4 -1 4 C-0.67 2.68 -0.34 1.36 0 0 Z " fill="#0E0E10" transform="translate(246,419)"/>
<path d="M0 0 C0.53625 0.2475 1.0725 0.495 1.625 0.75 C-3.55078125 3.97265625 -3.55078125 3.97265625 -5.375 4.75 C-6.365 4.42 -7.355 4.09 -8.375 3.75 C-2.95961538 -0.31153846 -2.95961538 -0.31153846 0 0 Z " fill="#091017" transform="translate(162.375,283.25)"/>
<path d="M0 0 C2.97 0 5.94 0 9 0 C5.99382731 3.00617269 3.17618402 2.59585316 -1 3 C-0.67 2.01 -0.34 1.02 0 0 Z " fill="#19181B" transform="translate(258,246)"/>
<path d="M0 0 C-0.66 0 -1.32 0 -2 0 C-1.67 0.99 -1.34 1.98 -1 3 C-3.49092811 4.24546405 -4.41080733 3.7767578 -7 3 C-7 2.34 -7 1.68 -7 1 C-3.375 -1.125 -3.375 -1.125 0 0 Z " fill="#373838" transform="translate(88,26)"/>
<path d="M0 0 C2.96175123 0.61277612 4.38058783 1.25372522 7 3 C7 3.66 7 4.32 7 5 C4.625 4.75 4.625 4.75 2 4 C0.6875 1.9375 0.6875 1.9375 0 0 Z " fill="#131317" transform="translate(216,477)"/>
<path d="M0 0 C1.32 0.33 2.64 0.66 4 1 C4 2.32 4 3.64 4 5 C2.68 5 1.36 5 0 5 C0 3.35 0 1.7 0 0 Z " fill="#E9E8EB" transform="translate(381,465)"/>
<path d="M0 0 C0.6875 1.8125 0.6875 1.8125 1 4 C-0.3125 5.75 -0.3125 5.75 -2 7 C-2.66 7 -3.32 7 -4 7 C-3.39816251 4.97954558 -2.72693904 2.97888961 -2 1 C-1.34 0.67 -0.68 0.34 0 0 Z " fill="#1A1A1C" transform="translate(453,424)"/>
<path d="M0 0 C0.99 0.33 1.98 0.66 3 1 C4.04449911 4.13349732 3.93423645 4.98968256 3 8 C2.34 8 1.68 8 1 8 C0.67 5.36 0.34 2.72 0 0 Z " fill="#101012" transform="translate(73,372)"/>
<path d="M0 0 C0 3 0 3 -1.5 4.6875 C-1.995 5.120625 -2.49 5.55375 -3 6 C-3.99 5.67 -4.98 5.34 -6 5 C-6 4.34 -6 3.68 -6 3 C-4.02 2.01 -2.04 1.02 0 0 Z " fill="#252831" transform="translate(199,265)"/>
<path d="M0 0 C-0.33 0.66 -0.66 1.32 -1 2 C-1.66 2 -2.32 2 -3 2 C-3.33 2.66 -3.66 3.32 -4 4 C-4 3.01 -4 2.02 -4 1 C-5.32 1.33 -6.64 1.66 -8 2 C-6.14210462 -1.71579076 -3.44525918 -1.06921837 0 0 Z " fill="#3D4040" transform="translate(193,261)"/>
<path d="M0 0 C0.66 0 1.32 0 2 0 C1.75 2.375 1.75 2.375 1 5 C-1.0625 6.3125 -1.0625 6.3125 -3 7 C-2.25 2.25 -2.25 2.25 0 0 Z " fill="#19181A" transform="translate(234,157)"/>
<path d="M0 0 C0.33 0.66 0.66 1.32 1 2 C0.67 2.99 0.34 3.98 0 5 C-0.66 5 -1.32 5 -2 5 C-2.33 5.99 -2.66 6.98 -3 8 C-4 5 -4 5 -3.1875 2.875 C-2 1 -2 1 0 0 Z " fill="#7C7A7B" transform="translate(27,77)"/>
<path d="M0 0 C0.66 0.33 1.32 0.66 2 1 C-3.75 6 -3.75 6 -6 6 C-4.98545548 3.4636387 -4.3146444 2.20648539 -2 0.6875 C-1.34 0.460625 -0.68 0.23375 0 0 Z " fill="#A09D9F" transform="translate(69,32)"/>
<path d="M0 0 C4.62 0 9.24 0 14 0 C14 0.33 14 0.66 14 1 C9.38 1 4.76 1 0 1 C0 0.67 0 0.34 0 0 Z " fill="#333130" transform="translate(90,9)"/>
<path d="M0 0 C1.65 0 3.3 0 5 0 C5 0.33 5 0.66 5 1 C3.35 1 1.7 1 0 1 C0 0.67 0 0.34 0 0 Z " fill="#343231" transform="translate(32,9)"/>
</svg>
